<?xml version="1.0" encoding="utf-8"?>
<!-- Generator: Adobe Illustrator 16.0.0, SVG Export Plug-In . SVG Version: 6.00 Build 0)  -->
<!DOCTYPE svg PUBLIC "-//W3C//DTD SVG 1.1//EN" "http://www.w3.org/Graphics/SVG/1.1/DTD/svg11.dtd">
<svg version="1.1" id="Layer_1" xmlns="http://www.w3.org/2000/svg" xmlns:xlink="http://www.w3.org/1999/xlink" x="0px" y="0px"
	 width="400px" height="130px" viewBox="0 0 400 130" enable-background="new 0 0 400 130" xml:space="preserve">
<g>
	<path fill="#EF4136" d="M39.769,76.438c0,0,7.478-14.391,21.284-21.79c3.874,1.537,10.156,3.796,16.312,4.517l0,0
		c6.161,0.732,12.665,0.492,18.473-0.853l0,0c29.271-6.763,31-25.044,31-25.044c-2.246-1.464-15.939-14.942-40.796-9.2l0,0
		c-30.226,6.98-60.037,28.983-74.294,66.58c-5.021,9.523-12.486,1.019-10.383-4.039c4.27-23.528,27.956-54.529,42.591-65.88l0,0
		C53.69,13.162,66.05,6.796,81.244,3.301l0,0c44.057-10.174,73.561,21.728,73.561,21.728c-0.101,0.829-0.912,27.554-26.604,42.171
		l0,0c-7.153,5.033-16.269,9.284-27.56,11.882l0,0c-6.162,1.416-16.335,0.239-18.99,0.597c7.212,8.339,62.434,46.281,84.077,19.147
		c8.36-10.498-10.281-25.991-10.281-25.991l5.297-7.329c23.476,11.844,25.199,32.011,19.398,42.811
		c-15.062,28.02-57.605,17.066-73.1,12.862C67.683,110.486,39.769,76.438,39.769,76.438z"/>
	<g>
		<g>
			<path fill="#414042" d="M263.611,18.903c0,9.356-5.488,15.278-12.576,17.921c0.42,2.811,3.988,14.749,17.908,21.764
				c-1.129,2.485-2.365,4.001-2.365,4.001c-20.072-3.136-23.951-22.209-25.031-24.948c-2.006,0-9.525,0-9.525,0v23.361h-9.033
				V15.649c-3.35-1.082-3.842-3.003-3.842-4.35c0-5.2,11.949-8.576,23.324-8.527C251.912,2.808,263.611,5.873,263.611,18.903z
				 M231.842,12.501V31.3h9.115c6.752,0,13.213-4.121,13.213-12.396c0-9.033-9.404-9.309-13.008-9.309
				C235.24,9.595,231.842,12.501,231.842,12.501z"/>
			<path fill="#414042" d="M302.395,62.274l-1.752-6.293c-4.014,3.928-8.938,6.018-13.791,6.018
				c-7.939,0-12.779-3.254-12.779-13.043V27.899c-2.762-0.841-3.758-2.175-3.758-3.855c0-3.842,5.752-4.432,9.438-4.432h3.004V48.21
				c0,5.597,3.1,7.099,7.027,7.099c4.012,0,8.527-2.595,10.701-5.26V19.612h8.686v39.577L302.395,62.274z"/>
			<path fill="#414042" d="M320.137,32.079c-3.436-1.093-3.775-2.846-3.775-4.023c0-4.432,11.547-9.861,25.838-9.861
				c9.271,0,13.033,3.927,13.033,12.119v30.688h-8.684V32.655c0-6.593-3.268-7.77-7.111-7.77c-3.34,0-7.35,1.009-10.619,2.918
				v33.198h-8.682V32.079z"/>
			<path fill="#414042" d="M390.615,62.18l-1.691-6.03c-6.189,5.009-11.197,5.85-14.297,5.85c-8.346,0-12.609-5.094-12.609-11.361
				c0-6.271,3.998-14.632,21.559-14.632h5.189v-2.257c0-13.043-21.234-5.453-21.234-5.453l-2.572-5.886
				c0,0,8.541-4.215,17.623-4.215c11.865,0,14.953,8.552,14.953,17.176v23.901L390.615,62.18z M384.416,41.856
				c-10.783,0-13.715,3.676-13.715,8.106c0,4.013,3.098,5.431,6.438,5.431c5.107,0,9.693-3.003,11.711-5.514v-8.023H384.416z"/>
		</g>
		<g>
			<path fill="#414042" d="M274.096,117.131l-1.213-4.288c-4.396,3.567-7.975,4.167-10.186,4.167c-5.943,0-8.982-3.64-8.982-8.106
				c0-4.47,2.857-10.414,15.361-10.414h3.688v-1.611c0-9.296-15.123-3.89-15.123-3.89l-1.824-4.193c0,0,6.088-3.003,12.551-3.003
				c8.455,0,10.654,6.09,10.654,12.229v17.043L274.096,117.131z M269.676,102.656c-7.686,0-9.764,2.606-9.764,5.767
				c0,2.858,2.197,3.878,4.574,3.878c3.641,0,6.92-2.15,8.35-3.928v-5.717H269.676z"/>
			<path fill="#414042" d="M377.092,117.131l-1.213-4.288c-4.396,3.567-7.975,4.167-10.174,4.167c-5.957,0-8.998-3.64-8.998-8.106
				c0-4.47,2.859-10.414,15.365-10.414h3.699v-1.611c0-9.296-15.133-3.89-15.133-3.89l-1.84-4.193c0,0,6.09-3.003,12.553-3.003
				c8.455,0,10.662,6.09,10.662,12.229v17.043L377.092,117.131z M372.66,102.656c-7.676,0-9.764,2.606-9.764,5.767
				c0,2.858,2.207,3.878,4.598,3.878c3.629,0,6.895-2.15,8.322-3.928v-5.717H372.66z"/>
			<path fill="#414042" d="M239.613,112.565c2.799,0,6.449-1.081,9.488-2.689l0.721,5.13c-3.291,1.429-6.57,2.34-11.879,2.34
				c-12.408,0-17.787-9.139-17.787-22.026c0-14.921,7.938-22.138,18.268-22.138c3.76,0,7.279,0.527,11.279,2.329l-0.721,5.248
				c-2.33-1.38-5.309-2.751-9.777-2.751c-7.352,0-12.301,6.152-12.301,17.432C226.904,107.967,231.854,112.565,239.613,112.565z"/>
			<path fill="#414042" d="M286.996,95.797c-2.27-0.659-2.689-2.03-2.689-2.868c0-2.03,2.918-3.761,5.668-4.949
				c3.701-1.611,8.059-2.092,10.258-2.092c7.998,0,12.42,4.71,12.42,14.979c0,10.33-4.469,15.998-12.467,15.998
				c-1.852,0-5.082-0.778-6.992-2.208v13.716h-6.197V95.797z M293.146,110.357c1.777,1.728,4.768,2.271,6.197,2.271
				c3.76,0,7.037-2.03,7.037-11.761c0-7.76-3.217-10.378-6.979-10.378c-2.148,0-4.707,0.891-6.256,2.15V110.357z"/>
			<path fill="#414042" d="M326.789,116.435h-6.197V94.777c-1.922-0.779-2.631-1.959-2.631-2.92c0-3.05,5.787-4.777,8.828-5.307
				V116.435z"/>
			<path fill="#414042" d="M351.318,87.32v4.06h-6.68v16.057c0,4.648,1.91,5.97,4.707,5.97c1.25,0,2.27-0.299,2.812-0.418
				l0.406,3.156c-2.029,0.771-3.578,1.023-5.895,1.023c-6.393,0-8.24-4.18-8.24-9.201V91.558c-2.391-0.119-3.939-0.889-3.939-2.448
				c0-3.16,6.209-8.049,10.148-9.909v8.12H351.318z"/>
			<path fill="#414042" d="M397.438,116.435h-6.197V79.329c-1.922-0.778-2.631-1.98-2.631-2.928c0-3.041,5.791-4.769,8.828-5.312
				V116.435z"/>
		</g>
		<path fill="#414042" d="M326.934,78.406c0,2.294-1.875,4.167-4.168,4.167c-2.307,0-4.166-1.873-4.166-4.167
			c0-2.308,1.859-4.168,4.166-4.168C325.059,74.238,326.934,76.099,326.934,78.406z"/>
	</g>
</g>
</svg>
