<svg xmlns="http://www.w3.org/2000/svg" viewBox="0 0 203.03 39.51"><defs><style>.cls-1{fill:#a11a2e;}.cls-2{fill:#b2b2b2;}</style></defs><title>Logo SL</title><g id="SL_logo_CMYK" data-name="SL logo_CMYK"><path class="cls-1" d="M18.12,54.88l10.54-1a5.1,5.1,0,0,0,1.82,2.67,5.42,5.42,0,0,0,3.13.81,5.28,5.28,0,0,0,3.31-.92,2.06,2.06,0,0,0,.91-1.7A2,2,0,0,0,36.62,53a22.43,22.43,0,0,0-4.57-1.09,47.81,47.81,0,0,1-7.67-1.79,8.1,8.1,0,0,1-3.62-2.78,7.16,7.16,0,0,1-1.47-4.46,7.29,7.29,0,0,1,1.58-4.72,9.4,9.4,0,0,1,4.38-3,23.24,23.24,0,0,1,7.47-1A26,26,0,0,1,40,35,9.44,9.44,0,0,1,44,37.32a12.24,12.24,0,0,1,2.62,4.28L36.46,42.66a3.55,3.55,0,0,0-1.29-2,5.24,5.24,0,0,0-3-.85,4.18,4.18,0,0,0-2.59.64A2,2,0,0,0,28.76,42a1.66,1.66,0,0,0,1,1.54,16.76,16.76,0,0,0,4.53.94,31.11,31.11,0,0,1,7.87,1.67,8.65,8.65,0,0,1,3.94,3.06,7.43,7.43,0,0,1,1.37,4.35,8.66,8.66,0,0,1-1.44,4.68,9.89,9.89,0,0,1-4.56,3.61A22,22,0,0,1,33,63.2q-7.58,0-10.79-2.16a9.79,9.79,0,0,1-4.13-6.16" transform="translate(-18.12 -23.69)"/><path class="cls-1" d="M53.67,59.81q4.13,3.39,10.8,3.39,7.48,0,11.73-4.08a14,14,0,0,0,4.24-10.48A14.07,14.07,0,0,0,77,39.05q-4.26-4.81-12.57-4.82-7.29,0-11.56,4.11a13.86,13.86,0,0,0-4.27,10.45,13.64,13.64,0,0,0,5.05,11m7.1-16.61a4.8,4.8,0,0,1,3.85-1.81,4.64,4.64,0,0,1,3.69,1.78,8.41,8.41,0,0,1,1.48,5.42q0,3.91-1.47,5.68a4.89,4.89,0,0,1-7.56,0q-1.5-1.79-1.5-5.54c0-2.46.5-4.3,1.51-5.5" transform="translate(-18.12 -23.69)"/><path class="cls-1" d="M94.75,34.86h5.06v7.8H94.75V62.57H84.11V42.66h-4v-7.8h4V33.61a21.38,21.38,0,0,1,.36-3.72,7.35,7.35,0,0,1,1.38-3.32,7.09,7.09,0,0,1,2.82-2.09A13.84,13.84,0,0,1,94,23.69a71.33,71.33,0,0,1,8.14.65l-1.2,6.4a21.25,21.25,0,0,0-3.09-.31,3.39,3.39,0,0,0-2.07.49,2.6,2.6,0,0,0-.89,1.52,13.5,13.5,0,0,0-.13,2.42" transform="translate(-18.12 -23.69)"/><path class="cls-1" d="M113.82,42.66v9.83a5.39,5.39,0,0,0,.33,2.34,1.93,1.93,0,0,0,1.82.89,11.24,11.24,0,0,0,3.28-.68l.79,7.3a34.21,34.21,0,0,1-7.35.86,12.9,12.9,0,0,1-5.84-1,6.23,6.23,0,0,1-2.78-3.09,18.17,18.17,0,0,1-.89-6.7V42.66h-3.9v-7.8h3.9V29.77l10.64-5.45V42.66Z" transform="translate(-18.12 -23.69)"/><rect class="cls-2" x="104.3" y="0.63" width="10.64" height="38.25"/><rect class="cls-2" x="119.42" y="11.17" width="10.64" height="27.71"/><rect class="cls-2" x="119.42" y="0.63" width="10.64" height="7.27"/><path class="cls-2" d="M152.24,34.86h9.92v4.51a14.55,14.55,0,0,1,4.47-4,11.83,11.83,0,0,1,5.53-1.18,9,9,0,0,1,6.89,2.62c1.66,1.75,2.48,4.45,2.48,8.1V62.57H170.9V47.33a5.58,5.58,0,0,0-1-3.7,3.45,3.45,0,0,0-2.72-1.08A3.89,3.89,0,0,0,164.08,44c-.8,1-1.19,2.72-1.19,5.25V62.57H152.24Z" transform="translate(-18.12 -23.69)"/><path class="cls-2" d="M216,50.19a19.19,19.19,0,0,0-1.8-8.92A12.22,12.22,0,0,0,208.94,36q-3.44-1.8-9.37-1.8-7.32,0-11.47,4a14,14,0,0,0-4.16,10.52A15,15,0,0,0,186,56.72a12.69,12.69,0,0,0,5.22,4.93,19.85,19.85,0,0,0,8.63,1.55c4.22,0,7.45-.6,9.71-1.81a14.91,14.91,0,0,0,5.77-6l-10.43-.94a6.88,6.88,0,0,1-1.83,1.74,5.83,5.83,0,0,1-2.94.78,5,5,0,0,1-4-1.79,6.8,6.8,0,0,1-1.36-3.79H216Zm-21.16-3.85A7.56,7.56,0,0,1,196,42.58a5.12,5.12,0,0,1,7.54-.69,7.26,7.26,0,0,1,1.65,4.45Z" transform="translate(-18.12 -23.69)"/><path class="cls-2" d="M66.92,28A147.86,147.86,0,0,1,95.2,33.42c9.42,2.54,24.41,1.44,24.41,1.44v7.8a69.71,69.71,0,0,1-29.22-3.35c-19-6.91-27.55-8.31-37.7-9-13.75-1-30.13,1.11-30.13,1.11L22.4,30s23.71-4.2,44.52-2" transform="translate(-18.12 -23.69)"/><path class="cls-2" d="M215.78,29.46h.52c.75,0,.82-.38.82-.58,0-.52-.72-.51-.82-.51h-.52Zm.93-2c1.07,0,1.63.57,1.63,1.32a1.13,1.13,0,0,1-.94,1.13h0a1,1,0,0,1,.51.51l.78,1.89H217.4l-.63-1.54a.63.63,0,0,0-.62-.39h-.37v1.93h-1.19V27.45Zm-.32,6.08a3.67,3.67,0,1,0-3.67-3.67,3.68,3.68,0,0,0,3.67,3.67m0-8.44a4.77,4.77,0,1,1-4.77,4.77,4.76,4.76,0,0,1,4.77-4.77" transform="translate(-18.12 -23.69)"/></g></svg>