<svg xmlns="http://www.w3.org/2000/svg" xmlns:xlink="http://www.w3.org/1999/xlink" version="1.1" width="0" height="0">
    <symbol id="arrow-up" viewBox="0 0 32.634 32.634" x="0px" y="0px" enable-background="new 0 0 32.634 32.634" xml:space="preserve">
        <path d="M16.317,32.634c-0.276,0-0.5-0.224-0.5-0.5V0.5c0-0.276,0.224-0.5,0.5-0.5s0.5,0.224,0.5,0.5v31.634
            C16.817,32.41,16.594,32.634,16.317,32.634z"/>
        <path d="M28.852,13.536c-0.128,0-0.256-0.049-0.354-0.146L16.319,1.207L4.135,13.39c-0.195,0.195-0.512,0.195-0.707,0
        s-0.195-0.512,0-0.707L15.966,0.146C16.059,0.053,16.186,0,16.319,0l0,0c0.133,0,0.26,0.053,0.354,0.146l12.533,12.536
        c0.195,0.195,0.195,0.512,0,0.707C29.108,13.487,28.98,13.536,28.852,13.536z"/>
    </symbol>
    <symbol id="contact-us" x="0px" y="0px" viewBox="0 0 512.001 512.001" style="enable-background:new 0 0 512.001 512.001;" xml:space="preserve">
        <path d="M478.329,183.82H300.803c-7.9-27.511-23.412-52.593-45.133-72.042c-32.922-29.481-75.446-43.016-119.749-38.119
            C64.871,81.518,8.048,138.871,0.809,210.032c-3.953,38.846,6.67,77.251,29.909,108.14c22.271,29.6,54.229,50.063,90.203,57.816
            l37.845,37.844c3.177,3.178,7.395,4.861,11.698,4.86c2.138,0,4.296-0.416,6.358-1.27c6.214-2.574,10.227-8.582,10.227-15.307
            V375.62c6.223-1.391,12.285-3.155,18.172-5.257v1.05c0,18.566,15.105,33.671,33.671,33.671h56.539l30.119,30.119
            c2.694,2.694,6.269,4.121,9.916,4.121c1.812,0,3.641-0.353,5.389-1.076c5.267-2.182,8.67-7.275,8.67-12.976v-20.188H478.33
            c18.566,0,33.671-15.105,33.671-33.671V217.489C512,198.925,496.895,183.82,478.329,183.82z M177.625,361.164
            c-3.825,0.682-6.609,4.007-6.609,7.892v33.06c0,0.191,0,0.357-0.33,0.494c-0.33,0.135-0.446,0.019-0.583-0.115l-39.539-39.539
            c-1.121-1.121-2.55-1.886-4.106-2.194c-33.084-6.575-62.535-25.124-82.928-52.229c-20.805-27.654-30.313-62.059-26.771-96.878
            c3.121-30.685,17.014-59.873,39.119-82.19c22.109-22.32,51.16-36.479,81.805-39.868c5.332-0.59,10.628-0.882,15.885-0.882
            c33.893,0,65.884,12.154,91.405,35.007c29.082,26.042,45.761,63.35,45.761,102.359
            C290.735,292.663,243.166,349.473,177.625,361.164z M495.966,371.414c0,9.725-7.912,17.637-17.637,17.637H341.508
            c-4.427,0-8.017,3.589-8.017,8.017v23.403l-29.071-29.071c-1.503-1.504-3.542-2.348-5.668-2.348h-59.859
            c-9.725,0-17.637-7.912-17.637-17.637v-7.818c51.32-25.224,85.513-77.856,85.513-137.515c0-8.852-0.781-17.622-2.28-26.228
            h173.841c9.725,0,17.637,7.912,17.637,17.637V371.414z"/>
        <path d="M449.792,246.027c-3.13-3.131-8.206-3.131-11.337,0l-79.845,79.845l-37.069-37.069c-3.131-3.131-8.207-3.131-11.337,0
            c-3.131,3.131-3.131,8.207,0,11.337l42.737,42.737c1.565,1.565,3.617,2.348,5.668,2.348c2.051,0,4.104-0.782,5.669-2.348
            l85.513-85.513C452.923,254.233,452.923,249.157,449.792,246.027z"/>
        <path d="M153.385,286.464c-0.003,0-0.007,0-0.011,0c-4.427,0-8.022,3.595-8.022,8.022c0,0.001,0,0.003,0,0.005
            c0,0.002,0,0.003,0,0.005c0,4.427,3.595,8.022,8.022,8.022c0.003,0,0.008,0,0.011,0c4.427,0,8.022-3.595,8.022-8.022
            c0-0.001,0-0.003,0-0.005c0-0.002,0-0.003,0-0.005C161.407,290.059,157.812,286.464,153.385,286.464z"/>
        <path d="M189.094,164.713c-9.712-9.712-22.397-15.06-35.719-15.059c-27.994,0.002-50.769,22.78-50.769,50.773
        c0,4.427,3.589,8.017,8.017,8.017c4.427,0,8.017-3.589,8.017-8.017c0-19.154,15.583-34.739,34.737-34.74
        c9.039,0,17.697,3.679,24.38,10.362c6.683,6.683,10.363,15.342,10.363,24.381c-0.001,15.227-10.176,28.911-24.742,33.279
        c-10.776,3.231-18.014,12.886-18.014,24.024v2.554c0,4.427,3.589,8.017,8.017,8.017c4.427,0,8.017-3.589,8.017-8.017v-2.554
        c0-4.002,2.647-7.485,6.587-8.666c21.295-6.386,36.169-26.385,36.17-48.636C204.154,187.11,198.806,174.424,189.094,164.713z"/>
    </symbol>
    <symbol id="phone1" x="0px" y="0px" viewBox="0 0 512 512" style="enable-background:new 0 0 512 512;" xml:space="preserve">
        <path d="M256,0C114.609,0,0,114.609,0,256c0,141.391,114.609,256,256,256c141.391,0,256-114.609,256-256
		C512,114.609,397.391,0,256,0z M256,472c-119.297,0-216-96.703-216-216S136.703,40,256,40s216,96.703,216,216S375.297,472,256,472z
		"/>
	<path d="M327.125,383.969c5.703,0.016,56.875-37.828,56.875-42.656s-57.266-40.905-62.219-40.905s-21.578,19.938-26.062,22.155
		c-4.5,2.22-32.5,1.422-63.703-29.78c-31.219-31.188-41.875-67.109-41.875-72.75c0-5.641,26.031-23.062,26.75-27.156
		c0.719-4.094-34.313-64.876-40-64.876S128,180.5,128,184.875s3.953,60.656,75.219,131.906S321.422,383.938,327.125,383.969z"/>
    </symbol>
    <symbol id="softline-partner" x="0px" y="0px" viewBox="0 0 488.318 488.318" style="enable-background:new 0 0 488.318 488.318;" xml:space="preserve">
		<path d="M329.136,147.265l-123.5-42.6c-11.7-4-24.8-3.2-36,2.2l-6.2,3c-8.4,4.1-18.3,4.7-27.1,1.5l-10.6-3.8
			c-0.5-0.3-1-0.6-1.5-0.8l-63.2-21.5c-1.5-0.5-3.2-0.4-4.6,0.3c-1.4,0.7-2.5,1.9-3,3.4l-53.1,154.9c-1.1,3.1,0.6,6.5,3.7,7.6
			l63.3,21.7c0.7,0.3,1.3,0.4,2,0.4c0.9,0,1.8-0.2,2.6-0.6c1.4-0.7,2.5-1.9,3-3.4l51.1-149l6.4,2.3c11.8,4.2,25.1,3.4,36.4-2.1
			l6.2-3c8.3-4.1,18.1-4.7,26.8-1.7l118.9,41c-0.9,5.2-3.4,13.8-9.9,18.3c-5.8,4-14.2,4.2-24.8,0.5l-51.9-17.7
			c-1.6-0.5-3.3-0.4-4.8,0.4s-2.5,2.2-3,3.8c-0.1,0.3-7.8,28.7-31.8,41.5c-15.2,8.2-34,8.5-55.9,1c-3.1-1.1-6.5,0.6-7.6,3.7
			c-1.1,3.1,0.6,6.5,3.7,7.6c11.7,4,22.8,6,33.1,6c11.8,0,22.6-2.6,32.4-7.9c21.4-11.5,31.7-32.5,35.6-42.9l46.1,15.8
			c14.5,5,26.4,4.3,35.6-2c14.8-10.2,15.5-31.2,15.6-32.1C333.236,150.465,331.536,148.065,329.136,147.265z M65.636,259.865
			l-52-17.8l49.2-143.5l50.6,17.3c0.4,0.2,0.8,0.4,1.2,0.6l0.2,0.1L65.636,259.865z"/>
		<path d="M487.736,235.965l-72.2-146.7c-0.7-1.4-1.9-2.5-3.4-3s-3.2-0.4-4.6,0.3l-60.1,29.4c-3,1.5-4.2,5-2.8,8l70,143l-23.5,21.5
			c-19.9,18.3-42.4,33.6-66.7,45.5l-115.1,56.3c-3.2,1.6-6.8,1.8-10.2,0.6c-3.4-1.2-6.1-3.6-7.7-6.8c-1.6-3.2-1.8-6.8-0.6-10.2
			c1.2-3.4,3.6-6.1,6.8-7.7l64.3-31.5c3-1.5,4.2-5,2.8-8c-1.5-3-5.1-4.2-8-2.8l-62.9,30.8l-31.7,15.5c-6.6,3.2-14.7,0.5-17.9-6.1
			c-3.2-6.6-0.5-14.6,6.1-17.9l92.4-45.2c3-1.5,4.2-5,2.8-8c-1.5-3-5.1-4.2-8-2.8l-68.4,33.5l-24,11.7l-11.3,5.5
			c-6.6,3.2-14.7,0.5-17.9-6.1c-3.2-6.6-0.5-14.7,6.1-17.9l11.4-5.6l82.7-40.5c3-1.5,4.2-5,2.8-8c-1.5-3-5.1-4.2-8-2.8l-53.1,26
			l-29.6,14.5c-3.2,1.6-6.8,1.8-10.2,0.6c-3.4-1.2-6.1-3.6-7.7-6.8c-1.6-3.2-1.8-6.8-0.6-10.2s3.6-6.1,6.8-7.7l43.9-21.5
			c3-1.5,4.2-5,2.8-8c-1.5-3-5.1-4.2-8-2.8l-43.9,21.5c-6.1,3-10.7,8.2-12.9,14.6c-2.2,6.4-1.8,13.3,1.2,19.4
			c2.3,4.8,6.1,8.6,10.7,11.1c-7.6,7.5-9.9,19.2-5,29.2c4.4,9,13.4,14.2,22.8,14.2c1.1,0,2.2-0.1,3.3-0.2c-0.8,5-0.2,10.3,2.2,15.3
			c4.4,9,13.4,14.2,22.8,14.2c3.7,0,7.5-0.8,11.1-2.6l10.9-5.4c-0.5,4.7,0.3,9.4,2.5,13.7c3,6.1,8.2,10.7,14.6,12.9
			c2.7,0.9,5.5,1.4,8.3,1.4c3.8,0,7.6-0.9,11.1-2.6l115.1-56.3c25.4-12.4,48.7-28.4,69.5-47.5l26.1-24l59.3-29
			C487.936,242.465,489.136,238.965,487.736,235.965z M424.736,260.365l-66.7-136.3l49.4-24.1l66.6,136.3L424.736,260.365z"/>
    </symbol>
    <symbol id="softline-experience" x="0px" y="0px" viewBox="0 0 512.157 512.157" style="enable-background:new 0 0 512.157 512.157;" xml:space="preserve">
        <g transform="translate(-1 -1)">
			<path d="M470.991,248.578c13.333-72.417-8.433-171.963-87.742-219.4C333.158,1.078,274.075-6.357,218.583,8.457
				C141.716,29.012,85.216,84.17,67.449,156.003c-3.961,14.57-5.64,29.666-4.975,44.75c0.851,9.359,2.578,18.618,5.159,27.654
				c3.473,11.5,5.193,23.458,5.1,35.471c-0.358,14.3-10.208,29.137-18.908,42.229c-9.484,14.287-17.675,26.625-12.925,38.004
				c4.508,7.713,12.442,12.795,21.333,13.667c0.512,0.092,1.03,0.145,1.55,0.158c2.376-0.291,4.758,0.497,6.491,2.149
				s2.635,3.993,2.459,6.38c0,17.733,0.442,26.883,7.767,31.079c-0.639,1.334-1.085,2.753-1.325,4.212
				c-0.736,5.006,1.067,10.049,4.808,13.454c3.72,3.603,8.433,6.009,13.533,6.908c0.358,0.083,0.7,0.146,1.033,0.225
				c0.202,1.269,0.291,2.553,0.267,3.838c-0.061,3.173-0.286,6.342-0.675,9.492c-1.417,13.65-3.358,32.346,23.95,41.271
				c5.481,1.532,11.162,2.223,16.85,2.05c25.858-1.148,51.413-6.047,75.863-14.542c7.059,12.31,11.315,26.026,12.462,40.171
				c-0.001,2.263,0.898,4.434,2.499,6.035c1.6,1.6,3.771,2.499,6.035,2.499h213.333c3.649-0.045,6.86-2.422,7.967-5.9
				c1.122-3.526-0.1-7.376-3.05-9.609c-8.829-6.704-38.068-77.335-38.967-102.705c2.577-5.851,6.029-12.421,10.117-20.053
				C447.459,335.662,462.94,292.958,470.991,248.578z M397.953,394.086c0.217,20.408,18.615,74.332,34.421,102.005H243.61
				c-2.125-13.075-6.361-25.717-12.543-37.432c24.724-9.69,46.503-22.149,56.957-35.822c2.845-3.747,2.123-9.09-1.616-11.946
				c-3.738-2.857-9.083-2.15-11.951,1.579c-24.15,31.6-124.633,55.592-147.067,48.254c-14.208-4.646-13.642-10.1-12.275-23.283
				c0.453-3.737,0.709-7.495,0.767-11.258c0-14.379-5.8-18.671-14.517-20.692c-1.645-0.235-3.216-0.842-4.592-1.775
				c1.675-1.601,3.576-2.947,5.642-3.996c3.562-1.75,5.448-5.724,4.55-9.59s-4.34-6.603-8.309-6.606c-3.083,0-6.508,0-8.308-0.225
				c-0.542-5.594-0.726-11.216-0.55-16.833c0.167-6.729-2.391-13.24-7.093-18.056c-4.702-4.816-11.151-7.529-17.882-7.523
				c-6.15-1.296-8.017-2.963-8.175-3.35c-1.242-2.962,6.983-15.337,11.4-21.987c9.475-14.267,21.267-32.025,21.75-51.237
				c0.239-10.661-0.947-21.306-3.527-31.653c9.305-8.188,20.286-14.244,32.177-17.743c4.237-0.74,8.591-0.435,12.683,0.887
				c4.543,1.252,9.24-1.416,10.492-5.958c1.252-4.543-1.416-9.24-5.958-10.492c-6.72-2.068-13.844-2.458-20.75-1.138
				c-12.059,3.072-23.329,8.669-33.065,16.421c-1.166-4.971-1.955-10.023-2.36-15.113c-0.578-13.298,0.949-26.604,4.525-39.425
				c16.5-66.688,67.15-115.95,138.983-135.159c51.027-13.685,105.38-6.908,151.484,18.888
				c72.325,43.254,92.025,134.854,79.725,201.658c-7.669,42.662-22.567,83.702-44.05,121.35
				c-4.692,8.754-8.742,16.313-11.667,23.308C397.996,391.396,397.811,392.748,397.953,394.086z"/>
			<path d="M414.89,268.074c1.221-13.163-7.79-25.088-20.787-27.508l-16.341-22.651c1.002-1.848,1.77-3.814,2.286-5.853
				l15.825-6.328c7.309,8.32,19.147,10.982,29.313,6.591c10.166-4.391,16.344-14.834,15.298-25.859s-9.08-20.118-19.891-22.518
				l-12.82-25.573c8.993-9.163,9.77-23.584,1.812-33.659c-7.958-10.076-22.166-12.662-33.163-6.036l-14.296-11.869
				c1.082-2.828,1.648-5.826,1.672-8.854c0.023-10.455-6.328-19.869-16.031-23.762c-9.703-3.894-20.8-1.481-28.01,6.09
				l-25.299-6.324c-3.03-10.974-12.982-18.6-24.367-18.669c-11.385-0.069-21.429,7.435-24.592,18.371l-33.81,6.762
				c-8.819-9.51-23.375-10.877-33.81-3.174c-10.435,7.702-13.418,22.014-6.93,33.244l-16.567,22.063
				c-11.872,2.146-20.62,12.311-20.973,24.37c-0.353,12.059,7.786,22.718,19.512,25.555l13.699,33.819
				c-7.516,7.378-9.735,18.612-5.589,28.295c4.146,9.682,13.808,15.829,24.334,15.481s19.762-7.118,23.26-17.053h45.813
				c3.825,11.766,15.761,18.89,27.932,16.672l28.329,43.091c-7.268,8.058-8.649,19.828-3.445,29.35
				c5.204,9.521,15.858,14.714,26.564,12.947c10.706-1.767,19.126-10.107,20.995-20.796l21.147-16.903
				c4.024,2.537,8.681,3.891,13.438,3.907C402.619,291.302,413.67,281.238,414.89,268.074z M414.999,180.357
				c4.268-0.009,7.886,3.137,8.47,7.364c0.585,4.227-2.044,8.237-6.153,9.387s-8.437-0.913-10.132-4.83
				c-0.029-0.078-0.013-0.159-0.044-0.237l-0.054-0.083c-0.397-0.975-0.608-2.015-0.621-3.068
				C406.471,184.18,410.288,180.362,414.999,180.357z M381.045,118.889c0.819-3.961,4.31-6.802,8.355-6.799
				c4.713,0,8.533,3.82,8.533,8.533s-3.82,8.533-8.533,8.533c-1.056-0.013-2.099-0.224-3.077-0.622l-0.073-0.048
				c-0.075-0.03-0.154-0.014-0.231-0.043C382.303,126.842,380.225,122.851,381.045,118.889z M372.556,139.75L372.556,139.75
				l-15.769,39.428l-27.643-22.114c3.75-3.199,6.49-7.418,7.89-12.145l33.81-6.762C371.381,138.726,371.968,139.232,372.556,139.75z
				 M363.471,208.263c-1.149,4.104-5.152,6.73-9.375,6.148c-4.222-0.582-7.367-4.191-7.363-8.454
				c0.005-4.711,3.822-8.529,8.533-8.533c1.056,0.013,2.099,0.224,3.077,0.622l0.073,0.048c0.077,0.031,0.158,0.018,0.235,0.046
				C362.562,199.836,364.62,204.158,363.471,208.263z M338.199,69.424c4.713,0,8.533,3.82,8.533,8.533s-3.821,8.533-8.533,8.533
				s-8.533-3.82-8.533-8.533C329.671,73.246,333.488,69.429,338.199,69.424z M293.293,71.26l19.491,4.873
				c-0.045,0.614-0.184,1.2-0.184,1.825c0.015,14.132,11.468,25.585,25.6,25.6c4.576-0.024,9.061-1.287,12.976-3.656l14.297,11.869
				c-1.082,2.828-1.649,5.826-1.673,8.854c0,0.516,0.123,0.999,0.152,1.508l-27.792,5.558c-3.485-8.112-10.903-13.857-19.629-15.202
				l-31.244-31.243C288.756,78.646,291.511,75.211,293.293,71.26z M321.133,137.691c0,4.713-3.82,8.533-8.533,8.533
				c-4.711-0.005-8.529-3.822-8.533-8.533c0-4.713,3.82-8.533,8.533-8.533S321.133,132.978,321.133,137.691z M269.933,52.357
				c4.713,0,8.533,3.82,8.533,8.533s-3.82,8.533-8.533,8.533s-8.533-3.82-8.533-8.533C261.404,56.18,265.222,52.362,269.933,52.357z
				 M271.624,91.72l25.62,25.617c-3.983,3.009-6.998,7.118-8.672,11.82H268.36c-2.015-5.65-5.953-10.411-11.125-13.451
				L271.624,91.72z M218.581,76.45l27.792-5.558c2.181,5.03,5.917,9.23,10.658,11.983l-15.49,25.817L214.763,91.51
				c2.58-4.051,3.956-8.751,3.97-13.553C218.733,77.441,218.61,76.958,218.581,76.45z M252.866,137.691
				c0,4.713-3.82,8.533-8.533,8.533c-4.711-0.005-8.529-3.822-8.533-8.533c0-4.713,3.82-8.533,8.533-8.533
				S252.866,132.978,252.866,137.691z M193.133,69.424c4.713,0,8.533,3.82,8.533,8.533s-3.82,8.533-8.533,8.533
				s-8.533-3.82-8.533-8.533C184.604,73.246,188.422,69.429,193.133,69.424z M183.845,101.75c5.199,2.144,10.987,2.389,16.349,0.693
				l26.347,16.905c-2.804,2.747-4.938,6.104-6.235,9.809h-37.279c-1.863-5.282-5.405-9.809-10.085-12.886L183.845,101.75z
				 M158.999,146.224c-4.713,0-8.533-3.82-8.533-8.533c0.005-4.711,3.822-8.529,8.533-8.533c4.713,0,8.533,3.82,8.533,8.533
				S163.712,146.224,158.999,146.224z M184.599,223.024c-4.713,0-8.533-3.821-8.533-8.533c0-4.713,3.82-8.533,8.533-8.533
				s8.533,3.821,8.533,8.533C193.128,219.202,189.31,223.019,184.599,223.024z M189.452,189.381
				c-1.598-0.318-3.224-0.482-4.853-0.491c-0.845,0-1.643,0.169-2.467,0.25l-11.628-28.707c5.839-2.959,10.32-8.045,12.522-14.209
				h37.279c1.537,4.298,4.198,8.105,7.706,11.024L189.452,189.381z M254.439,205.957h-45.813c-0.911-2.556-2.226-4.95-3.894-7.09
				l41.909-34.924l14.271,32.008C257.996,198.729,255.778,202.158,254.439,205.957z M268.36,146.224h20.213
				c2.015,5.65,5.953,10.411,11.125,13.451l-17.742,29.569c-1.154-0.198-2.319-0.316-3.489-0.353c-0.661,0-1.282,0.146-1.931,0.195
				l-14.649-32.855C264.803,153.452,267.021,150.023,268.36,146.224z M278.466,223.024c-4.713,0-8.533-3.821-8.533-8.533
				c0-4.713,3.821-8.533,8.533-8.533c4.713,0,8.533,3.821,8.533,8.533C286.995,219.202,283.177,223.019,278.466,223.024z
				 M314.891,167.52l23.831,19.065c-3.749,3.2-6.49,7.419-7.89,12.145l-28.806,5.761c-1.187-2.727-2.839-5.226-4.883-7.386
				L314.891,167.52z M329.666,308.357c-4.713,0-8.533-3.82-8.533-8.533s3.82-8.533,8.533-8.533s8.533,3.82,8.533,8.533
				C338.195,304.535,334.377,308.353,329.666,308.357z M363.799,265.691c0.031,2.851,0.544,5.676,1.517,8.356l-14.405,11.515
				c-5.386-8.413-15.323-12.737-25.15-10.943l-28.329-43.091c2.531-2.822,4.399-6.173,5.468-9.809l28.806-5.761
				c5.492,12.971,20.439,19.057,33.429,13.611l10.527,14.592C368.288,248.839,363.814,256.958,363.799,265.691z M372.11,186.831
				l16.282-40.709c0.341,0.014,0.662,0.102,1.007,0.102c1.028-0.04,2.053-0.144,3.069-0.31l10.332,20.611
				c-8.226,4.438-13.368,13.019-13.401,22.366c0,0.346,0.089,0.667,0.102,1.01l-11.473,4.587
				C376.561,191.583,374.552,188.984,372.11,186.831z M389.399,274.224c-4.713,0-8.533-3.82-8.533-8.533
				c0.005-4.711,3.822-8.529,8.533-8.533c4.713,0,8.533,3.82,8.533,8.533S394.112,274.224,389.399,274.224z"/>
            </g>
    </symbol>
    <symbol id="softline-employees" x="0px" y="0px" viewBox="0 0 380.65 380.65" style="enable-background:new 0 0 380.65 380.65;" xml:space="preserve">
		<path d="M310.805,268.65h-44.84c-9.267-0.006-18.377,2.392-26.44,6.96c-6.863,3.893-12.8,9.229-17.4,15.64
			c-3.064-0.535-6.169-0.802-9.28-0.8h-44.88c-3.111-0.003-6.216,0.265-9.28,0.8c-4.599-6.412-10.536-11.748-17.4-15.64
			c-8.063-4.568-17.173-6.966-26.44-6.96h-44.84c-29.796,0.066-53.934,24.204-54,54v30.44c0.022,3.188,2.612,5.76,5.8,5.76h92v16
			c0,3.203,2.597,5.8,5.8,5.8h141.44c3.203,0,5.8-2.597,5.8-5.8v-16h92c3.203,0,5.8-2.597,5.8-5.8v-30.4
			C364.579,292.916,340.538,268.804,310.805,268.65z M114.405,339.25v1.24c0,0.56,0,1.08,0,1.64v2.32v2.8h-86.8v-24.6
			c0.066-23.39,19.01-42.334,42.4-42.4h44.84c7.261-0.008,14.4,1.866,20.72,5.44c4.237,2.396,8.038,5.494,11.24,9.16
			C128.756,302.684,116.36,319.672,114.405,339.25z M255.125,344.45v24.64h-129.56v-25.08c0-0.453,0-0.893,0-1.32
			c0-0.693,0-1.387,0-2.08v-1.04c0-0.4,0-0.8,0-1.2v-1.28v-0.4v-0.44v-0.88l0.24-0.96l0.4-1.44l0.28-0.96
			c5.746-17.415,21.982-29.206,40.32-29.28l1.16-0.64h44.88c21.297,0.078,39.258,15.885,42.04,37c0,0.88,0,1.76,0.24,2.64
			C255.125,342.637,255.125,343.543,255.125,344.45z M353.205,347.29h-86.4v-3.48c0-0.44,0-0.88,0-1.32c0-0.453,0-0.907,0-1.36
			c0-0.64,0-1.32,0-1.96v-0.6v-0.68v-1.24v-0.2v-0.48v-0.44v-0.28v-0.52v-0.56v-0.28v-0.36v-0.36v-0.36v-0.88v-0.4v-0.52v-0.52
			l-0.28-1v-0.4v-0.36v-0.28v-0.4v-0.52l-0.56-1.56c-5.212-13.855-15.842-24.99-29.44-30.84c2.406-3.562,5.332-6.744,8.68-9.44
			c6.32-3.574,13.459-5.448,20.72-5.44h44.88c23.389,0.066,42.334,19.01,42.4,42.4V347.29z"/>
		<circle cx="190.645" cy="77.85" r="6.56"/>
		<path d="M121.285,189.17c-7.643-7.688-18.039-12.008-28.88-12c-22.555-0.02-40.856,18.248-40.876,40.804
			c-0.02,22.555,18.248,40.856,40.804,40.876s40.856-18.248,40.876-40.804C133.218,207.221,128.93,196.835,121.285,189.17z
			 M113.085,238.65c-11.417,11.421-29.93,11.425-41.352,0.008c-11.421-11.417-11.425-29.93-0.008-41.352
			c11.417-11.421,29.93-11.425,41.352-0.008c5.484,5.482,8.566,12.918,8.568,20.672C121.656,225.728,118.576,233.17,113.085,238.65z
			"/>
		<circle cx="233.045" cy="77.85" r="6.56"/>
		<path d="M258.725,22.73c-19.566-15.048-43.638-23.053-68.32-22.72c-24.682-0.333-48.753,7.672-68.32,22.72
			c-17.92,14.32-29,34.24-29,56.28c0.022,11.194,2.87,22.201,8.28,32c5.148,9.257,12.066,17.412,20.36,24l-4.6,30.6
			c-0.479,3.145,1.683,6.082,4.828,6.561c1.303,0.198,2.634-0.056,3.772-0.721l31.28-18.24c4.957,1.474,10.009,2.61,15.12,3.4
			c6.062,0.934,12.187,1.402,18.32,1.4c24.682,0.333,48.754-7.672,68.32-22.72c17.88-14.36,28.96-34.24,28.96-56.28
			S276.645,37.05,258.725,22.73z M251.525,126.33c-17.545,13.349-39.077,20.395-61.12,20c-5.53,0.008-11.053-0.406-16.52-1.24
			c-5.424-0.811-10.774-2.055-16-3.72c-1.551-0.489-3.236-0.301-4.64,0.52l-22.84,13.48l3.32-22c0.317-2.149-0.594-4.295-2.36-5.56
			c-8.204-5.937-15.027-13.578-20-22.4c-4.448-8.089-6.786-17.169-6.8-26.4c0-18.4,9.4-35.12,24.6-47.28
			c17.545-13.349,39.077-20.395,61.12-20c22.043-0.395,43.575,6.651,61.12,20c15.2,12,24.6,28.88,24.6,47.28
			C276.005,97.41,266.725,114.13,251.525,126.33z"/>
		<path d="M288.438,177.13c-22.555-0.02-40.856,18.248-40.876,40.804c-0.01,10.825,4.279,21.212,11.924,28.876
			c7.643,7.688,18.039,12.008,28.88,12c22.555,0.02,40.856-18.248,40.876-40.804S310.993,177.15,288.438,177.13z M309.085,238.633
			c-11.417,11.421-29.93,11.425-41.352,0.008c-5.484-5.482-8.566-12.918-8.568-20.672c-0.011-7.758,3.069-15.2,8.56-20.68
			c11.417-11.421,29.93-11.425,41.352-0.008C320.498,208.698,320.502,227.212,309.085,238.633z"/>
		<circle cx="148.245" cy="77.85" r="6.56"/>
		<path d="M219.225,210.83c-7.652-7.626-18.017-11.905-28.82-11.9c-10.841-0.008-21.237,4.312-28.88,12
			c-15.906,15.961-15.861,41.794,0.1,57.7c15.961,15.906,41.794,15.861,57.7-0.1S235.186,226.736,219.225,210.83z M190.397,269.042
			c-16.149-0.005-29.236-13.1-29.232-29.248s13.1-29.236,29.248-29.232c7.754,0.002,15.19,3.084,20.672,8.568
			c5.491,5.48,8.571,12.922,8.56,20.68C219.64,255.959,206.545,269.046,190.397,269.042z"/>
    </symbol>
    <symbol id="softline-operation" x="0px" y="0px" viewBox="0 0 480.046 480.046" style="enable-background:new 0 0 480.046 480.046;" xml:space="preserve">
		<path d="M412.078,216.172l-20.25-11.914c-0.602-2.441-1.258-4.867-1.977-7.258l14.406-21.805c1.528-2.31,1.753-5.246,0.594-7.762
			c-5.035-10.878-11.172-21.212-18.313-30.84c-1.608-2.129-4.155-3.337-6.82-3.234l-26.844,1.32
			c-1.688-1.73-3.411-3.418-5.172-5.063l1.344-26.008c0.142-2.745-1.135-5.371-3.383-6.953c-9.889-6.982-20.449-12.96-31.523-17.848
			c-2.433-1.076-5.242-0.87-7.492,0.551l-22.5,14.176c-2.438-0.699-4.922-1.348-7.43-1.937L264.461,68.3
			c-1.383-2.629-4.108-4.276-7.078-4.277h-34.719c-2.97,0.001-5.696,1.648-7.078,4.277l-12.25,23.297
			c-2.5,0.586-4.979,1.232-7.437,1.937l-22.492-14.176c-2.247-1.419-5.053-1.627-7.484-0.555
			c-11.081,4.887-21.647,10.868-31.539,17.855c-2.242,1.583-3.516,4.204-3.375,6.945l1.344,26.012
			c-1.766,1.645-3.49,3.329-5.172,5.055l-26.852-1.32c-2.662-0.072-5.199,1.131-6.828,3.238
			c-7.127,9.634-13.257,19.967-18.297,30.84c-1.158,2.514-0.936,5.447,0.586,7.758L90.195,197c-0.719,2.391-1.375,4.816-1.977,7.258
			l-20.25,11.91c-2.445,1.436-3.946,4.059-3.946,6.894v33.918c0,2.835,1.501,5.458,3.945,6.895l20.25,11.91
			c0.602,2.441,1.258,4.867,1.977,7.262l-14.406,21.801c-1.528,2.31-1.753,5.246-0.594,7.762
			c5.036,10.879,11.172,21.214,18.313,30.844c1.614,2.121,4.157,3.327,6.82,3.234l26.844-1.32c1.688,1.731,3.411,3.418,5.172,5.063
			L131,376.434c-0.142,2.745,1.135,5.371,3.383,6.953c9.889,6.982,20.449,12.962,31.523,17.852c2.434,1.072,5.241,0.865,7.492-0.551
			l22.5-14.176c2.437,0.699,4.922,1.348,7.43,1.937l12.258,23.297c1.382,2.629,4.108,4.276,7.078,4.278h34.719
			c2.97-0.001,5.696-1.648,7.078-4.277l12.25-23.297c2.5-0.586,4.979-1.232,7.438-1.937l22.492,14.176
			c2.248,1.415,5.052,1.623,7.484,0.555c11.081-4.887,21.647-10.868,31.539-17.855c2.242-1.583,3.516-4.204,3.375-6.945
			l-1.344-26.012c1.766-1.645,3.49-3.331,5.172-5.059l26.852,1.32c2.668,0.115,5.221-1.096,6.82-3.234
			c7.133-9.633,13.266-19.968,18.305-30.844c1.158-2.514,0.936-5.447-0.586-7.758l-14.406-21.809
			c0.719-2.391,1.375-4.816,1.977-7.258l20.25-11.91c2.445-1.436,3.946-4.059,3.945-6.894v-33.918
			C416.024,220.232,414.523,217.608,412.078,216.172z M400.023,252.407l-19.266,11.332c-1.917,1.126-3.279,3-3.758,5.172
			c-0.961,4.367-2.148,8.703-3.516,12.887c-0.76,2.319-0.42,4.857,0.922,6.895h0l14,21.199c-3.563,7.165-7.657,14.053-12.25,20.605
			l-26.164-1.285c-2.349-0.068-4.617,0.857-6.25,2.547c-3.023,3.246-6.227,6.383-9.539,9.324c-1.819,1.612-2.805,3.964-2.68,6.391
			l1.305,25.32c-6.797,4.538-13.921,8.567-21.312,12.055l-21.914-13.813c-1.983-1.254-4.418-1.57-6.656-0.863
			c-4.297,1.344-8.75,2.504-13.227,3.445c-2.335,0.487-4.329,1.993-5.437,4.105l-11.727,22.301h-25.063l-11.727-22.301
			c-1.109-2.108-3.099-3.613-5.43-4.105c-4.516-0.953-8.969-2.109-13.234-3.445c-2.237-0.708-4.673-0.392-6.656,0.863
			l-21.922,13.812c-7.391-3.492-14.514-7.524-21.313-12.063l1.313-25.312c0.124-2.432-0.865-4.788-2.688-6.402
			c-3.297-2.922-6.508-6.059-9.539-9.316c-1.62-1.708-3.897-2.636-6.25-2.547l-26.156,1.285
			c-4.598-6.549-8.695-13.436-12.258-20.602l14-21.195c1.348-2.036,1.691-4.578,0.93-6.898c-1.367-4.184-2.555-8.523-3.516-12.891
			c-0.479-2.172-1.84-4.046-3.758-5.172l-19.266-11.332v-24.762l19.266-11.332c1.917-1.126,3.279-3,3.758-5.172
			c0.961-4.367,2.148-8.703,3.516-12.887c0.76-2.319,0.42-4.857-0.922-6.895l-14-21.203c3.564-7.164,7.659-14.052,12.25-20.605
			l26.164,1.289c2.358,0.118,4.646-0.815,6.25-2.547c3.023-3.246,6.227-6.383,9.539-9.324c1.819-1.612,2.805-3.964,2.68-6.391
			l-1.305-25.32c6.797-4.538,13.921-8.567,21.312-12.055l21.914,13.813c1.985,1.25,4.418,1.565,6.656,0.863
			c4.297-1.344,8.75-2.504,13.227-3.445c2.335-0.487,4.329-1.993,5.437-4.105l11.727-22.301h25.063l11.727,22.301
			c1.109,2.108,3.099,3.613,5.43,4.105c4.516,0.953,8.969,2.109,13.234,3.445c2.238,0.697,4.67,0.382,6.656-0.863L311.523,95.2
			c7.391,3.491,14.514,7.521,21.313,12.059l-1.313,25.316c-0.124,2.432,0.865,4.788,2.688,6.402
			c3.297,2.922,6.508,6.059,9.539,9.316c1.616,1.715,3.896,2.644,6.25,2.547l26.156-1.285c4.598,6.549,8.695,13.436,12.258,20.602
			l-14,21.195c-1.348,2.036-1.691,4.578-0.93,6.898c1.367,4.184,2.555,8.519,3.516,12.887c0.479,2.172,1.84,4.046,3.758,5.172
			l19.266,11.332V252.407z"/>
		<path d="M240.023,120.024c-66.274,0-120,53.726-120,120s53.726,120,120,120s120-53.726,120-120
			C359.95,173.78,306.267,120.097,240.023,120.024z M240.023,344.024c-57.438,0-104-46.562-104-104s46.562-104,104-104
			s104,46.562,104,104C343.958,297.434,297.434,343.959,240.023,344.024z"/>
		<path d="M408.023,32.024v48h-48v16h56c4.417,0.001,7.999-3.579,8-7.996c0-0.001,0-0.003,0-0.004v-56H408.023z"/>
		<path d="M64.023,384.024c-4.417-0.001-7.999,3.579-8,7.996c0,0.001,0,0.003,0,0.004v56h16v-48h48v-16H64.023z"/>
		<path d="M41.402,105.327C14.444,145.075,0.03,191.996,0.023,240.024c-0.086,48.065,14.338,95.036,41.383,134.77l13.234-9
			c-69.445-102.4-42.731-241.708,59.669-311.153c75.92-51.488,175.558-51.489,251.48-0.003l9-13.234
			C265.074-33.007,115.812-4.387,41.402,105.327z"/>
		<path d="M440.219,107.606l-13.344,8.836c68.236,103.211,39.884,242.196-63.326,310.432
			c-75.72,50.061-174.164,49.483-249.291-1.463l-9,13.234c109.716,74.409,258.979,45.787,333.388-63.929
			C493.238,294.221,493.859,188.738,440.219,107.606z"/>
    </symbol>
    <symbol id="effect-01" x="0px" y="0px" viewBox="0 0 58.153 58.153" style="enable-background:new 0 0 58.153 58.153;" xml:space="preserve">
        <path d="M40.076,29.153h-7.142c-0.364-1.399-1.459-2.494-2.858-2.858V16.153c0-0.553-0.448-1-1-1s-1,0.447-1,1v10.142
            c-1.72,0.447-3,1.999-3,3.858c0,2.206,1.794,4,4,4c1.858,0,3.411-1.28,3.858-3h7.142c0.552,0,1-0.447,1-1
            S40.629,29.153,40.076,29.153z M29.076,32.153c-1.103,0-2-0.897-2-2s0.897-2,2-2s2,0.897,2,2S30.179,32.153,29.076,32.153z"/>
        <path d="M50.188,9.764l4.096,4.096c0.188,0.188,0.442,0.293,0.707,0.293s0.52-0.105,0.707-0.293c3.167-3.166,3.167-8.319,0-11.485
            s-8.319-3.166-11.485,0c-0.188,0.188-0.293,0.441-0.293,0.707s0.105,0.52,0.293,0.707l4.561,4.561l-1.699,1.699
            c-4.78-4.284-11.089-6.896-17.998-6.896s-13.218,2.612-17.998,6.896L9.379,8.35l4.561-4.561c0.188-0.188,0.293-0.441,0.293-0.707
            s-0.105-0.52-0.293-0.707c-3.166-3.166-8.318-3.166-11.485,0s-3.167,8.319,0,11.485c0.188,0.188,0.442,0.293,0.707,0.293
            s0.52-0.105,0.707-0.293l4.096-4.096l1.676,1.676c-4.679,4.857-7.565,11.453-7.565,18.713c0,9.898,5.357,18.564,13.321,23.265
            l-3.028,3.028c-0.391,0.391-0.391,1.023,0,1.414c0.195,0.195,0.451,0.293,0.707,0.293s0.512-0.098,0.707-0.293l3.45-3.45
            c3.578,1.754,7.597,2.743,11.843,2.743s8.265-0.989,11.843-2.743l3.45,3.45c0.195,0.195,0.451,0.293,0.707,0.293
            s0.512-0.098,0.707-0.293c0.391-0.391,0.391-1.023,0-1.414l-3.028-3.028c7.964-4.701,13.321-13.367,13.321-23.265
            c0-7.26-2.886-13.856-7.565-18.713L50.188,9.764z M54.283,3.789c2.146,2.146,2.362,5.502,0.649,7.893l-8.541-8.542
            C48.781,1.427,52.136,1.642,54.283,3.789z M3.22,11.681C1.507,9.291,1.723,5.935,3.869,3.789s5.502-2.361,7.892-0.649L3.22,11.681z
            M29.076,55.153c-13.785,0-25-11.215-25-25s11.215-25,25-25s25,11.215,25,25S42.862,55.153,29.076,55.153z"/>
        <path d="M29.076,10.032c0.552,0,1-0.447,1-1v-1c0-0.553-0.448-1-1-1s-1,0.447-1,1v1C28.076,9.584,28.524,10.032,29.076,10.032z"/>
        <path d="M29.076,50.032c-0.552,0-1,0.447-1,1v1c0,0.553,0.448,1,1,1s1-0.447,1-1v-1C30.076,50.479,29.629,50.032,29.076,50.032z"/>
        <path d="M50.076,31.032h1c0.552,0,1-0.447,1-1s-0.448-1-1-1h-1c-0.552,0-1,0.447-1,1S49.524,31.032,50.076,31.032z"/>
        <path d="M8.076,29.032h-1c-0.552,0-1,0.447-1,1s0.448,1,1,1h1c0.552,0,1-0.447,1-1S8.629,29.032,8.076,29.032z"/>
        <path d="M43.926,13.768l-0.707,0.707c-0.391,0.391-0.391,1.023,0,1.414c0.195,0.195,0.451,0.293,0.707,0.293
            s0.512-0.098,0.707-0.293l0.707-0.707c0.391-0.391,0.391-1.023,0-1.414S44.316,13.377,43.926,13.768z"/>
        <path d="M13.52,44.174l-0.707,0.707c-0.391,0.391-0.391,1.023,0,1.414c0.195,0.195,0.451,0.293,0.707,0.293
            s0.512-0.098,0.707-0.293l0.707-0.707c0.391-0.391,0.391-1.023,0-1.414S13.911,43.784,13.52,44.174z"/>
        <path d="M44.633,44.174c-0.391-0.391-1.023-0.391-1.414,0s-0.391,1.023,0,1.414l0.707,0.707c0.195,0.195,0.451,0.293,0.707,0.293
            s0.512-0.098,0.707-0.293c0.391-0.391,0.391-1.023,0-1.414L44.633,44.174z"/>
        <path d="M14.227,13.768c-0.391-0.391-1.023-0.391-1.414,0s-0.391,1.023,0,1.414l0.707,0.707c0.195,0.195,0.451,0.293,0.707,0.293
            s0.512-0.098,0.707-0.293c0.391-0.391,0.391-1.023,0-1.414L14.227,13.768z"/>
    </symbol>
    <symbol id="effect-02" x="0px" y="0px" viewBox="0 0 511 511.99978">
        <path d="m235.792969 347.265625c3.902343-3.910156 3.902343-10.238281 0-14.148437-3.90625-3.898438-10.234375-3.898438-14.144531 0-3.898438 3.910156-3.898438 10.238281 0 14.148437 3.910156 3.898437 10.238281 3.898437 14.144531 0zm0 0"/><path d="m188.449219 109.96875c0 60.636719 49.332031 109.972656 109.96875 109.972656s109.96875-49.335937 109.96875-109.972656-49.332031-109.96875-109.96875-109.96875-109.96875 49.332031-109.96875 109.96875zm199.945312 0c0 49.613281-40.363281 89.976562-89.976562 89.976562s-89.976563-40.363281-89.976563-89.976562c0-49.609375 40.363282-89.972656 89.976563-89.972656s89.976562 40.363281 89.976562 89.972656zm0 0"/><path d="m115.652344 509.042969c3.875 3.90625 10.183594 3.949219 14.109375.082031l48.46875-47.75c8.234375-8.234375 10.738281-20.425781 7.117187-31.023438l10.425782-10.054687c5.613281-5.421875 13.003906-8.410156 20.816406-8.410156h132.902344c23.578124 0 45.863281-9.054688 62.757812-25.496094.695312-.675781-5.277344 6.359375 90.667969-108.3125 14.230469-16.835937 12.101562-42.117187-4.75-56.363281-16.746094-14.113282-41.832031-12.085938-56.101563 4.460937l-58.992187 60.632813c-7.449219-9.167969-18.808594-14.882813-31.082031-14.882813h-111.480469c-15.863281-6.636719-32.695313-9.996093-50.0625-9.996093-48.140625 0-90.175781 22.234374-112.734375 63.921874-9.503906-1.800781-19.527344 1.074219-26.738282 8.285157l-47.558593 47.699219c-3.882813 3.894531-3.890625 10.195312-.015625 14.101562zm74.792968-227.121094c15.3125 0 30.117188 3.082031 44.011719 9.160156 1.265625.554688 2.628907.839844 4.007813.839844h113.527344c10.839843 0 19.996093 8.839844 19.996093 19.992187 0 11.027344-8.96875 19.996094-19.996093 19.996094h-81.566407c-5.519531 0-9.996093 4.476563-9.996093 9.996094 0 5.523438 4.476562 9.996094 9.996093 9.996094h81.566407c22.050781 0 39.988281-17.9375 39.988281-39.988282 0-1.757812-.125-3.5-.351563-5.226562 57.066406-58.660156 65.113282-66.902344 65.457032-67.3125 7.125-8.410156 19.773437-9.476562 28.1875-2.382812 8.421874 7.121093 9.488281 19.761718 2.34375 28.21875l-89.667969 107.195312c-13.09375 12.570312-30.285157 19.488281-48.457031 19.488281h-132.902344c-13.023438 0-25.351563 4.980469-34.703125 14.015625l-8.496094 8.199219-78.320313-78.316406c18.304688-34.339844 52.652344-53.871094 95.375-53.871094zm-125.320312 66.34375c3.296875-3.296875 8.359375-3.890625 12.378906-1.40625 1.730469 1.054687-3.238281-3.46875 86.589844 86.234375 3.996094 3.996094 3.78125 10.363281.054688 14.089844l-41.320313 40.707031-98.230469-98.980469zm0 0"/><path d="m286.421875 49.988281v11.714844c-11.636719 4.125-19.996094 15.238281-19.996094 28.273437 0 16.535157 13.453125 29.992188 29.992188 29.992188 5.511719 0 9.996093 4.484375 9.996093 9.996094 0 5.511718-4.484374 9.996094-9.996093 9.996094-4.269531 0-8.882813-2.683594-12.980469-7.5625-3.554688-4.226563-9.859375-4.769532-14.085938-1.21875-4.226562 3.554687-4.773437 9.859374-1.21875 14.085937 5.34375 6.355469 11.628907 10.785156 18.289063 13.019531v11.667969c0 5.523437 4.476563 9.996094 9.996094 9.996094s9.996093-4.472657 9.996093-9.996094v-11.714844c11.636719-4.128906 19.996094-15.242187 19.996094-28.273437 0-16.539063-13.453125-29.992188-29.992187-29.992188-5.511719 0-9.996094-4.484375-9.996094-9.996094 0-5.511718 4.484375-10 9.996094-10 3.542969 0 7.28125 1.808594 10.8125 5.226563 3.96875 3.839844 10.296875 3.734375 14.136719-.230469 3.839843-3.96875 3.734374-10.296875-.230469-14.136718-5.074219-4.910157-10.152344-7.6875-14.722657-9.203126v-11.644531c0-5.523437-4.476562-10-9.996093-10s-9.996094 4.476563-9.996094 10zm0 0"/>
    </symbol>
    <symbol id="effect-03" x="0px" y="0px" height="64px" width="64px" style="shape-rendering:geometricPrecision; text-rendering:geometricPrecision; image-rendering:optimizeQuality; fill-rule:evenodd; clip-rule:evenodd" viewBox="0 0 13838 13838" xml:space="preserve">
        <g id="Layer_x0020_1"><path d="M8917 3190c210,72 412,154 607,246 279,133 543,286 788,456l2 2 108 77 1 1c299,-144 634,-243 1010,-293 118,-15 226,68 242,186 2,17 2,35 1,52l0 0 -132 1189c116,164 220,335 311,509 92,177 173,362 240,554 133,98 289,173 456,225l0 0c209,65 430,96 639,94l1 0c156,-1 299,0 431,91 136,94 219,257 219,556l0 1629 0 87 -62 63c-268,275 -683,580 -1216,910 -518,321 -1151,667 -1869,1032 -84,71 -173,140 -266,208 -60,44 -120,87 -181,128l230 1681c23,170 -5,369 -132,548 -96,136 -247,258 -473,343 -225,84 -414,89 -570,47l0 0c-212,-57 -357,-196 -445,-337l0 0 -871 -1387c-148,26 -300,46 -456,61 -206,20 -410,30 -611,30 -201,0 -405,-10 -611,-30 -156,-15 -308,-35 -456,-61l-871 1387 0 0c-88,141 -232,280 -445,337l0 0c-156,42 -345,37 -570,-47 -226,-85 -378,-207 -473,-343 -127,-179 -155,-378 -132,-548l230 -1682c-623,-420 -1137,-956 -1498,-1570 -372,-633 -581,-1347 -581,-2102 0,-247 22,-490 65,-727 -50,17 -100,31 -149,42 -36,46 -77,91 -123,131 -145,127 -339,216 -589,233 -163,11 -351,-10 -563,-72 -114,-33 -180,-153 -146,-268 33,-114 153,-180 268,-146 161,47 298,63 413,55 22,-2 43,-4 64,-7 -47,-24 -90,-51 -130,-81 -118,-91 -203,-211 -240,-347l0 0c-37,-135 -27,-280 40,-420l1 0c81,-169 202,-273 338,-324 113,-43 233,-48 347,-21l0 1c108,25 212,78 296,152 125,110 214,268 227,452 3,40 3,81 0,123 25,-13 51,-20 78,-22 172,-535 453,-1032 819,-1472 598,-716 1427,-1280 2392,-1611 -142,-293 -222,-622 -222,-969 0,-613 249,-1169 650,-1570 401,-401 957,-650 1570,-650 613,0 1169,249 1570,650 401,401 650,957 650,1570 0,348 -80,676 -222,970zm1095 1020c-212,-143 -437,-272 -672,-384 -210,-100 -430,-187 -655,-260 -60,79 -126,154 -196,224 -45,45 -93,89 -142,130l47 15c166,54 324,121 467,201l-209 376c-116,-64 -248,-120 -391,-167 -133,-43 -274,-79 -419,-106 -281,128 -594,200 -923,200 -318,0 -621,-67 -895,-188 -155,29 -302,65 -437,106 -149,45 -288,99 -410,160l-191 -387c141,-70 302,-132 476,-185l45 -13c-55,-45 -107,-93 -157,-143 -70,-70 -136,-145 -196,-224 -929,300 -1726,832 -2293,1511 -575,689 -913,1533 -913,2442 0,678 187,1318 520,1884 348,593 856,1107 1474,1501l116 75 -18 136 -248 1816c-10,76 2,164 57,242 50,70 136,137 271,188 130,49 231,54 308,33l1 0c87,-23 149,-85 188,-147l1 -1 949 -1512 79 -126 145 29c186,37 374,65 560,83 181,17 372,27 570,27 198,0 389,-9 571,-27 186,-18 374,-46 560,-82l145 -29 79 126 949 1512 1 1c39,63 101,124 188,147l1 0c77,20 178,16 308,-33 135,-51 221,-117 271,-188 55,-78 67,-167 57,-242l-248 -1816 -19 -137 117 -74c97,-61 188,-124 274,-187 87,-64 174,-133 260,-206l18 -16 24 -12c719,-365 1350,-709 1861,-1026 462,-286 827,-549 1072,-783l0 -1540c0,-133 -13,-188 -33,-202 -23,-16 -98,-16 -181,-15l-1 0c-255,2 -521,-34 -771,-113l-1 0c-233,-74 -456,-186 -644,-339l-49 -40 -20 -59c-63,-188 -142,-373 -236,-554l-5 -9 -6 58c-13,118 -120,204 -238,191 -118,-13 -204,-120 -191,-238l185 -1660c-283,62 -536,160 -762,288 -296,168 -550,393 -769,666 -75,93 -210,108 -303,33 -93,-75 -108,-210 -33,-303 196,-243 417,-454 666,-628zm-2877 -1039l0 581c0,119 -97,216 -216,216 -119,0 -216,-97 -216,-216l0 -571c-24,-5 -48,-11 -72,-18l-7 -2c-235,-73 -432,-243 -489,-526 -23,-117 53,-231 170,-254 117,-23 231,53 254,170 20,102 96,166 187,196l10 3c48,15 101,21 154,20l3 0 0 0 30 -2c63,-5 123,-21 172,-46 61,-31 104,-76 104,-129 0,-45 -9,-74 -22,-92 -17,-23 -49,-39 -82,-49 -59,-18 -126,-17 -192,-16 -100,2 -201,4 -325,-34l0 0c-98,-30 -198,-83 -276,-171l1 0c-81,-92 -135,-217 -135,-382 0,-237 142,-413 342,-514 54,-27 112,-49 173,-65l0 -469c0,-119 97,-216 216,-216 119,0 216,97 216,216l0 459c24,5 48,11 71,18 239,71 440,242 497,528 23,117 -53,231 -170,254 -117,23 -231,-53 -254,-170 -21,-105 -101,-171 -196,-199 -46,-14 -97,-20 -148,-20l-1 0 -3 0 -13 1 -3 0 -3 0 -18 1c-63,5 -123,21 -172,46 -61,31 -104,76 -104,129 0,49 10,79 26,97l0 0 1 0c18,21 48,35 77,44l1 0 0 0c59,18 126,17 191,16 100,-2 200,-3 324,34 110,33 222,95 303,205 66,88 108,203 108,349 0,237 -142,413 -342,514 -54,27 -113,49 -173,65zm1048 -2215c-323,-323 -770,-524 -1264,-524 -494,0 -941,200 -1264,524 -323,323 -524,770 -524,1264 0,494 200,941 524,1264 323,323 770,524 1264,524 494,0 941,-200 1264,-524 323,-323 524,-770 524,-1264 0,-494 -200,-941 -524,-1264zm-7085 5466c22,3 45,5 69,6l12 -37c19,-66 26,-132 22,-191 -4,-62 -36,-117 -80,-156 -32,-28 -70,-48 -108,-57l-2 0c-33,-8 -67,-7 -97,4 -37,14 -74,48 -101,106l1 0c-20,43 -25,85 -15,120l0 1c12,43 43,85 88,120 53,41 125,71 211,84zm9064 -151c178,0 340,73 458,190l1 1c117,117 190,279 190,458 0,178 -73,341 -191,458l1 1c-117,117 -279,190 -459,190 -179,0 -342,-73 -459,-190 -117,-117 -190,-280 -190,-459 0,-179 73,-342 190,-459l1 1c117,-118 280,-191 458,-191zm153 495c-38,-38 -92,-62 -153,-62 -60,0 -114,24 -153,62l0 1c-39,39 -63,93 -63,153 0,60 25,114 63,153 39,39 93,63 153,63 60,0 114,-25 153,-63l1 0c38,-38 62,-93 62,-153 0,-60 -24,-114 -62,-153l-1 -1z"/></g>
    </symbol>
    <symbol id="effect-04" x="0px" y="0px" viewBox="0 0 480.204 480.204" style="enable-background:new 0 0 480.204 480.204;" xml:space="preserve">
		<path d="M475.07,375.826l-11.047-4.875c-0.43-1.547-0.898-3.031-1.398-4.477l6.156-10.609c1.414-2.446,1.438-5.454,0.063-7.922
			c-3.238-5.767-7.1-11.161-11.516-16.086c-1.935-2.177-4.905-3.122-7.742-2.461l-11.625,2.656
			c-1.141-0.891-2.313-1.755-3.516-2.594l-1.125-12.328c-0.258-2.845-2.016-5.335-4.609-6.531c-5.93-2.77-12.154-4.859-18.555-6.227
			c-2.852-0.608-5.808,0.393-7.703,2.609l-8.141,9.453h-3.906l-8.141-9.453c-1.89-2.224-4.851-3.227-7.703-2.609
			c-6.4,1.368-12.625,3.456-18.555,6.227c-2.594,1.196-4.351,3.687-4.609,6.531l-1.125,12.328c-1.203,0.836-2.375,1.7-3.516,2.594
			l-11.625-2.656c-2.837-0.657-5.805,0.287-7.742,2.461c-4.417,4.924-8.276,10.322-11.508,16.094
			c-1.375,2.465-1.352,5.471,0.062,7.914l6.148,10.602c-0.5,1.445-0.966,2.94-1.398,4.484l-11.047,4.875
			c-2.902,1.277-4.775,4.149-4.773,7.32v18.109c-0.002,3.171,1.871,6.043,4.773,7.32l11.047,4.875
			c0.43,1.547,0.898,3.031,1.398,4.477l-6.156,10.61c-1.414,2.445-1.438,5.454-0.063,7.922c3.238,5.767,7.1,11.161,11.516,16.086
			c1.937,2.178,4.911,3.123,7.75,2.461l11.609-2.664c1.141,0.898,2.32,1.766,3.523,2.602l1.125,12.328
			c0.258,2.845,2.016,5.335,4.609,6.531c5.93,2.77,12.154,4.859,18.555,6.227c2.852,0.606,5.807-0.395,7.703-2.609l8.141-9.453
			h3.906l8.141,9.453c1.519,1.767,3.733,2.783,6.063,2.781c0.551,0.001,1.101-0.057,1.641-0.172
			c6.401-1.368,12.625-3.456,18.555-6.227c2.594-1.196,4.351-3.687,4.609-6.531l1.125-12.328c1.203-0.836,2.375-1.701,3.516-2.594
			l11.625,2.656c2.837,0.662,5.808-0.283,7.742-2.461c4.415-4.924,8.277-10.319,11.516-16.086c1.375-2.468,1.351-5.476-0.063-7.922
			l-6.156-10.609c0.5-1.445,0.969-2.93,1.398-4.477l11.047-4.875c2.902-1.277,4.775-4.149,4.773-7.32v-18.11
			C479.845,379.976,477.972,377.103,475.07,375.826z M453.992,400.389c-2.318,1.019-4.014,3.077-4.57,5.547
			c-0.731,3.295-1.74,6.523-3.016,9.648c-0.954,2.306-0.781,4.925,0.469,7.086l5.695,9.813c-1.289,2-2.68,3.948-4.172,5.844
			l-10.719-2.453c-2.509-0.586-5.146,0.084-7.07,1.797c-2.492,2.186-5.162,4.159-7.984,5.898c-2.14,1.322-3.535,3.573-3.766,6.078
			l-1.039,11.422c-2.148,0.844-4.305,1.578-6.453,2.188l-7.328-8.508c-1.52-1.765-3.733-2.78-6.062-2.781h-11.234
			c-2.329,0.001-4.542,1.017-6.062,2.781l-7.328,8.508c-2.148-0.609-4.305-1.344-6.453-2.188l-1.039-11.422
			c-0.231-2.505-1.625-4.756-3.766-6.078c-2.821-1.737-5.489-3.711-7.977-5.898c-1.934-1.708-4.571-2.38-7.086-1.805l-10.711,2.453
			c-1.492-1.883-2.883-3.836-4.172-5.836l5.695-9.813c1.249-2.161,1.423-4.779,0.469-7.086c-1.276-3.125-2.285-6.353-3.016-9.648
			c-0.557-2.47-2.253-4.528-4.57-5.547l-9.852-4.344v-7.688l9.852-4.344c2.318-1.019,4.014-3.077,4.57-5.547
			c0.732-3.3,1.741-6.533,3.016-9.664c0.954-2.304,0.781-4.92-0.469-7.078l-5.688-9.813c1.281-1.992,2.672-3.945,4.164-5.836
			l10.719,2.453c2.509,0.577,5.142-0.092,7.07-1.797c2.492-2.186,5.162-4.159,7.984-5.898c2.14-1.322,3.535-3.573,3.766-6.078
			l1.039-11.422c2.148-0.844,4.305-1.578,6.453-2.188l7.328,8.508c1.52,1.765,3.733,2.78,6.063,2.781h11.234
			c2.329-0.001,4.542-1.017,6.063-2.781l7.328-8.508c2.148,0.609,4.305,1.344,6.453,2.188l1.039,11.422
			c0.231,2.505,1.626,4.756,3.766,6.078c2.822,1.739,5.492,3.712,7.984,5.898c1.928,1.706,4.562,2.375,7.07,1.797l10.719-2.453
			c1.492,1.891,2.883,3.838,4.172,5.844l-5.695,9.813c-1.249,2.161-1.423,4.779-0.469,7.086c1.276,3.125,2.285,6.353,3.016,9.648
			c0.557,2.47,2.253,4.528,4.57,5.547l9.852,4.344l0,7.688L453.992,400.389z"/>
		<path d="M392.359,352.201c-22.091,0-40,17.909-40,40c0,22.091,17.909,40,40,40c22.091,0,40-17.909,40-40
			C432.333,370.121,414.44,352.227,392.359,352.201z M392.359,416.201c-13.255,0-24-10.745-24-24s10.745-24,24-24s24,10.745,24,24
			C416.344,405.45,405.608,416.187,392.359,416.201z"/>
		<path d="M224.359,32.201c-66.274,0-120,53.726-120,120c0.072,66.244,53.756,119.928,120,120c66.274,0,120-53.726,120-120
			S290.633,32.201,224.359,32.201z M124.682,181.849c-16.385-55.039,14.95-112.94,69.989-129.326
			c9.635-2.868,19.635-4.324,29.688-4.322c10.041,0.009,20.027,1.479,29.645,4.362c-1.954,1.288-3.986,2.534-5.793,3.896
			c-2.737,2.061-3.858,5.636-2.789,8.891l3.672,11.18c-1.508,1.422-2.984,2.898-4.406,4.406l-11.172-3.672
			c-3.251-1.051-6.811,0.064-8.883,2.781c-5.911,7.763-10.852,16.218-14.711,25.18c-1.344,3.152-0.53,6.809,2.023,9.094l8.898,7.969
			c-0.609,1.992-1.148,4-1.625,6.008l-11.594,2.438c-3.701,0.78-6.351,4.045-6.352,7.828v27.281c0.001,3.783,2.65,7.048,6.352,7.828
			l11.594,2.438c0.477,2.008,1.016,4.016,1.617,6.008l-8.891,7.969c-2.553,2.285-3.367,5.942-2.023,9.094
			c3.859,8.956,8.794,17.408,14.695,25.172c2.061,2.737,5.636,3.859,8.891,2.789l11.18-3.672c1.422,1.508,2.898,2.984,4.406,4.406
			l-3.672,11.172c-1.066,3.251,0.051,6.82,2.781,8.883c1.808,1.366,3.846,2.618,5.805,3.91
			C198.968,268.224,141.067,236.889,124.682,181.849z M272.561,244.271c-3.465-1.768-6.834-3.719-10.093-5.843l3.461-10.531
			c1.016-3.097,0.055-6.501-2.43-8.609c-3.691-3.122-7.117-6.545-10.242-10.234c-2.111-2.476-5.508-3.432-8.602-2.422l-10.563,3.477
			c-2.623-3.854-4.985-7.878-7.07-12.047l8.391-7.523c2.429-2.174,3.297-5.604,2.195-8.672c-1.64-4.53-2.897-9.19-3.758-13.93
			c-0.579-3.203-3.041-5.737-6.227-6.406l-10.352-2.18v-14.297l10.352-2.18c3.186-0.67,5.648-3.203,6.227-6.406
			c0.864-4.745,2.121-9.409,3.758-13.946c1.102-3.066,0.233-6.493-2.195-8.664l-8.391-7.515c2.087-4.168,4.449-8.193,7.07-12.047
			l10.57,3.477c3.097,1.008,6.496,0.049,8.609-2.43c3.122-3.691,6.545-7.117,10.234-10.242c2.479-2.11,3.436-5.509,2.422-8.602
			l-3.461-10.531c3.26-2.12,6.628-4.068,10.091-5.836c10.938,5.775,20.763,13.445,29.02,22.655
			c-38.337,10.306-61.061,49.739-50.755,88.076c6.656,24.759,25.996,44.099,50.755,50.755
			C293.323,230.826,283.498,238.496,272.561,244.271z M264.929,144.244c3.531-24.539,22.809-43.817,47.348-47.348
			c21.443,33.752,21.443,76.858,0,110.61C281.732,203.112,260.534,174.788,264.929,144.244z"/>
		<path d="M435.116,136.733l-9.594-4.234c-0.328-1.148-0.672-2.273-1.047-3.375l5.352-9.227c1.414-2.443,1.438-5.449,0.063-7.914
			c-2.939-5.24-6.444-10.142-10.453-14.617c-1.939-2.182-4.915-3.129-7.758-2.469l-10.078,2.305
			c-0.852-0.656-1.719-1.297-2.602-1.914l-0.984-10.727c-0.266-2.838-2.017-5.321-4.602-6.523
			c-5.389-2.523-11.048-4.424-16.867-5.664c-2.758-0.581-5.618,0.337-7.523,2.414l-8.83,9.595
			C322.926,9.268,231.821-21.414,156.706,15.853S50.908,144.224,88.175,219.34c2.227,4.489,4.675,8.865,7.335,13.112l-21.401,26.75
			c-1.36,1.709-1.967,3.897-1.68,6.062c0.286,2.169,1.453,4.124,3.227,5.406l17.374,12.635L2.148,395.154
			c-2.787,3.439-2.258,8.486,1.181,11.273c0.01,0.008,0.02,0.016,0.029,0.024l40,32c3.435,2.741,8.436,2.204,11.211-1.203
			l92.908-114.344l16.178,11.766c3.457,2.515,8.281,1.868,10.953-1.469l24.962-31.205c65.836,11.411,131.298-22.019,160.654-82.043
			l8.751,9.63c1.517,1.668,3.667,2.618,5.922,2.617c0.551,0.001,1.101-0.057,1.641-0.172c5.822-1.24,11.484-3.141,16.875-5.664
			c2.584-1.202,4.336-3.686,4.602-6.523l0.984-10.727c0.883-0.625,1.75-1.266,2.594-1.914l10.086,2.305
			c2.843,0.665,5.822-0.283,7.758-2.469c4.005-4.474,7.507-9.373,10.445-14.609c1.381-2.465,1.361-5.476-0.055-7.922l-5.352-9.227
			c0.375-1.102,0.719-2.227,1.047-3.375l9.594-4.234c2.902-1.277,4.775-4.149,4.773-7.32v-16.297
			C439.891,140.882,438.019,138.01,435.116,136.733z M47.156,420.998L19.648,398.99l86.344-106.258l28.523,20.75L47.156,420.998z
			 M166.882,317.24l-16.133-11.734l-0.91-0.662l-58.004-42.189l13.242-16.542c19.647,24.952,46.603,43.136,77.097,52.008
			L166.882,317.24z M224.359,288.201c-75.111,0-136-60.889-136-136c0.084-75.076,60.924-135.916,136-136
			c75.111,0,136,60.889,136,136S299.47,288.201,224.359,288.201z M423.89,155.139l-8.383,3.695c-2.318,1.019-4.014,3.077-4.57,5.547
			c-0.651,2.929-1.545,5.798-2.672,8.578c-0.954,2.301-0.78,4.915,0.469,7.07l4.875,8.406c-0.977,1.492-2.021,2.953-3.133,4.383
			l-9.141-2.094c-2.51-0.589-5.15,0.078-7.078,1.789c-2.214,1.945-4.587,3.701-7.094,5.25c-2.13,1.323-3.518,3.566-3.75,6.063
			l-0.898,9.789c-1.633,0.633-3.271,1.188-4.914,1.664l-10.445-11.498c12.288-33.339,12.27-69.969-0.05-103.295l10.472-11.371
			c1.641,0.477,3.297,1.039,4.938,1.672l0.898,9.789c0.233,2.5,1.624,4.747,3.758,6.07c2.506,1.544,4.877,3.297,7.086,5.242
			c1.93,1.707,4.568,2.374,7.078,1.789l9.141-2.094c1.109,1.43,2.154,2.891,3.133,4.383l-4.875,8.406
			c-1.249,2.155-1.422,4.769-0.469,7.07c1.127,2.78,2.021,5.65,2.672,8.578c0.557,2.47,2.253,4.528,4.57,5.547l8.383,3.695V155.139z
			"/>
    </symbol>
    <symbol id="optimization-01" x="0px" y="0px" viewBox="0 0 50 50" style="enable-background:new 0 0 50 50;" xml:space="preserve">
        <path d="M46,0.5c-2.206,0-4,1.794-4,4v6H26V7.923C26,6.587,24.913,5.5,23.577,5.5h-3.154C19.89,5.5,19.401,5.678,19,5.971
            C18.599,5.678,18.11,5.5,17.577,5.5h-3.154C13.087,5.5,12,6.587,12,7.923V10.5H8v-6c0-2.206-1.794-4-4-4s-4,1.794-4,4v41
            c0,2.206,1.794,4,4,4s4-1.794,4-4v-5h16v2.505c0,1.376,1.119,2.495,2.495,2.495h3.01c0.563,0,1.077-0.194,1.495-0.51
            c0.418,0.316,0.932,0.51,1.495,0.51h3.01c1.376,0,2.495-1.119,2.495-2.495V40.5h4v5c0,2.206,1.794,4,4,4s4-1.794,4-4v-41
            C50,2.294,48.206,0.5,46,0.5z M6,45.5c0,1.103-0.897,2-2,2s-2-0.897-2-2v-41c0-1.103,0.897-2,2-2s2,0.897,2,2V45.5z M20.423,7.5
            h3.154C23.811,7.5,24,7.689,24,7.923v7.154c0,0.233-0.189,0.423-0.423,0.423h-3.154C20.189,15.5,20,15.311,20,15.077V7.923
            C20,7.689,20.189,7.5,20.423,7.5z M14,7.923C14,7.689,14.189,7.5,14.423,7.5h3.154C17.811,7.5,18,7.689,18,7.923v7.154
            c0,0.233-0.189,0.423-0.423,0.423h-3.154C14.189,15.5,14,15.311,14,15.077V7.923z M12,12.5v2.577c0,1.336,1.087,2.423,2.423,2.423
            h3.154c0.533,0,1.022-0.178,1.423-0.471c0.401,0.293,0.89,0.471,1.423,0.471h3.154c1.336,0,2.423-1.087,2.423-2.423V12.5h16v12h-8
            v-2.875c0-1.172-0.953-2.125-2.125-2.125h-3.75c-0.414,0-0.798,0.124-1.125,0.329c-0.327-0.206-0.711-0.329-1.125-0.329h-3.75
            c-0.414,0-0.798,0.124-1.125,0.329c-0.327-0.206-0.711-0.329-1.125-0.329h-3.75C14.953,19.5,14,20.453,14,21.625V24.5H8v-12H12z
            M28,21.625c0-0.069,0.056-0.125,0.125-0.125h3.75c0.069,0,0.125,0.056,0.125,0.125v7.75c0,0.069-0.056,0.125-0.125,0.125h-3.75
            C28.056,29.5,28,29.444,28,29.375V21.625z M22,21.625c0-0.069,0.056-0.125,0.125-0.125h3.75c0.069,0,0.125,0.056,0.125,0.125v7.75
            c0,0.069-0.056,0.125-0.125,0.125h-3.75C22.056,29.5,22,29.444,22,29.375V21.625z M20,29.375c0,0.069-0.056,0.125-0.125,0.125h-3.75
            C16.056,29.5,16,29.444,16,29.375v-7.75c0-0.069,0.056-0.125,0.125-0.125h3.75c0.069,0,0.125,0.056,0.125,0.125V29.375z
            M29.505,43.5h-3.01C26.222,43.5,26,43.278,26,43.005v-7.01c0-0.273,0.222-0.495,0.495-0.495h3.01c0.273,0,0.495,0.222,0.495,0.495
            v7.01C30,43.278,29.778,43.5,29.505,43.5z M36,43.005c0,0.273-0.222,0.495-0.495,0.495h-3.01C32.222,43.5,32,43.278,32,43.005v-7.01
            c0-0.273,0.222-0.495,0.495-0.495h3.01c0.273,0,0.495,0.222,0.495,0.495V43.005z M38,38.5v-2.505c0-1.376-1.119-2.495-2.495-2.495
            h-3.01c-0.563,0-1.077,0.194-1.495,0.51c-0.418-0.316-0.932-0.51-1.495-0.51h-3.01C25.119,33.5,24,34.619,24,35.995V38.5H8v-12h6
            v2.875c0,1.172,0.953,2.125,2.125,2.125h3.75c0.414,0,0.798-0.124,1.125-0.33c0.327,0.206,0.711,0.33,1.125,0.33h3.75
            c0.414,0,0.798-0.124,1.125-0.33c0.327,0.206,0.711,0.33,1.125,0.33h3.75c1.172,0,2.125-0.953,2.125-2.125V26.5h8v12H38z M48,45.5
            c0,1.103-0.897,2-2,2s-2-0.897-2-2v-41c0-1.103,0.897-2,2-2s2,0.897,2,2V45.5z"/>
    </symbol>
    <symbol id="optimization-02" x="0px" y="0px" viewBox="0 0 512 512" style="enable-background:new 0 0 512 512;" xml:space="preserve">
		<path d="M414.007,148.75c5.522,0,10-4.477,10-10V30c0-16.542-13.458-30-30-30h-364c-16.542,0-30,13.458-30,30v452
			c0,16.542,13.458,30,30,30h364c16.542,0,30-13.458,30-30v-73.672c0-5.523-4.478-10-10-10c-5.522,0-10,4.477-10,10V482
			c0,5.514-4.486,10-10,10h-364c-5.514,0-10-4.486-10-10V30c0-5.514,4.486-10,10-10h364c5.514,0,10,4.486,10,10v108.75
			C404.007,144.273,408.485,148.75,414.007,148.75z"/>
		<path d="M212.007,54c-50.729,0-92,41.271-92,92c0,26.317,11.11,50.085,28.882,66.869c0.333,0.356,0.687,0.693,1.074,1
			c16.371,14.979,38.158,24.13,62.043,24.13c23.885,0,45.672-9.152,62.043-24.13c0.387-0.307,0.741-0.645,1.074-1
			c17.774-16.784,28.884-40.552,28.884-66.869C304.007,95.271,262.736,54,212.007,54z M212.007,218
			c-16.329,0-31.399-5.472-43.491-14.668c8.789-15.585,25.19-25.332,43.491-25.332c18.301,0,34.702,9.747,43.491,25.332
			C243.405,212.528,228.336,218,212.007,218z M196.007,142v-6.5c0-8.822,7.178-16,16-16s16,7.178,16,16v6.5c0,8.822-7.178,16-16,16
			S196.007,150.822,196.007,142z M269.947,188.683c-7.375-10.938-17.596-19.445-29.463-24.697c4.71-6.087,7.523-13.712,7.523-21.986
			v-6.5c0-19.851-16.149-36-36-36s-36,16.149-36,36v6.5c0,8.274,2.813,15.899,7.523,21.986
			c-11.867,5.252-22.088,13.759-29.463,24.697c-8.829-11.953-14.06-26.716-14.06-42.683c0-39.701,32.299-72,72-72s72,32.299,72,72
			C284.007,161.967,278.776,176.73,269.947,188.683z"/>
		<path d="M266.007,438h-54c-5.522,0-10,4.477-10,10s4.478,10,10,10h54c5.522,0,10-4.477,10-10S271.529,438,266.007,438z"/>
		<path d="M266.007,382h-142c-5.522,0-10,4.477-10,10s4.478,10,10,10h142c5.522,0,10-4.477,10-10S271.529,382,266.007,382z"/>
		<path d="M266.007,326h-142c-5.522,0-10,4.477-10,10s4.478,10,10,10h142c5.522,0,10-4.477,10-10S271.529,326,266.007,326z"/>
		<path d="M88.366,272.93c-1.859-1.86-4.439-2.93-7.079-2.93c-2.631,0-5.211,1.07-7.07,2.93c-1.86,1.86-2.93,4.44-2.93,7.07
			s1.069,5.21,2.93,7.07c1.87,1.86,4.439,2.93,7.07,2.93c2.64,0,5.21-1.07,7.079-2.93c1.86-1.86,2.931-4.44,2.931-7.07
			S90.227,274.79,88.366,272.93z"/>
		<path d="M88.366,328.93c-1.869-1.86-4.439-2.93-7.079-2.93c-2.631,0-5.2,1.07-7.07,2.93c-1.86,1.86-2.93,4.44-2.93,7.07
			s1.069,5.21,2.93,7.07c1.87,1.86,4.439,2.93,7.07,2.93c2.64,0,5.21-1.07,7.079-2.93c1.86-1.86,2.931-4.44,2.931-7.07
			S90.227,330.79,88.366,328.93z"/>
		<path d="M88.366,384.93c-1.869-1.86-4.439-2.93-7.079-2.93c-2.631,0-5.2,1.07-7.07,2.93c-1.86,1.86-2.93,4.44-2.93,7.07
			s1.069,5.21,2.93,7.07c1.859,1.86,4.439,2.93,7.07,2.93c2.64,0,5.22-1.07,7.079-2.93c1.86-1.86,2.931-4.44,2.931-7.07
			S90.227,386.79,88.366,384.93z"/>
		<path d="M266.007,270h-142c-5.522,0-10,4.477-10,10s4.478,10,10,10h142c5.522,0,10-4.477,10-10S271.529,270,266.007,270z"/>
		<path d="M491.002,130.32c-9.715-5.609-21.033-7.099-31.871-4.196c-10.836,2.904-19.894,9.854-25.502,19.569L307.787,363.656
			c-0.689,1.195-1.125,2.52-1.278,3.891l-8.858,79.344c-0.44,3.948,1.498,7.783,4.938,9.77c1.553,0.896,3.278,1.34,4.999,1.34
			c2.092,0,4.176-0.655,5.931-1.948l64.284-47.344c1.111-0.818,2.041-1.857,2.73-3.052l125.841-217.963
			C517.954,167.638,511.058,141.9,491.002,130.32z M320.063,426.394l4.626-41.432l28.942,16.71L320.063,426.394z M368.213,386.996
			l-38.105-22l100.985-174.91l38.105,22L368.213,386.996z M489.054,177.693l-9.857,17.073l-38.105-22l9.857-17.073
			c2.938-5.089,7.682-8.729,13.358-10.25c5.678-1.522,11.606-0.74,16.694,2.198c5.089,2.938,8.729,7.682,10.25,13.358
			C492.772,166.675,491.992,172.604,489.054,177.693z"/>
    </symbol>
    <symbol id="optimization-03" x="0px" y="0px" height="480pt" viewBox="0 0 480 480" width="480pt">
        <path d="m440 144h-88v-40c0-.175781-.089844-.328125-.105469-.503906-.039062-.699219-.175781-1.394532-.40625-2.054688-.089843-.257812-.152343-.503906-.265625-.753906-.386718-.871094-.929687-1.664062-1.597656-2.34375l-96-96c-.683594-.671875-1.480469-1.210938-2.351562-1.601562-.242188-.101563-.472657-.167969-.722657-.253907-.679687-.234375-1.390625-.375-2.109375-.4179685-.128906.0195313-.273437-.0703125-.441406-.0703125h-208c-22.082031.0273438-39.9726562 17.917969-40 40v368c.0273438 22.082031 17.917969 39.972656 40 40h168.800781c3.828125 18.613281 20.199219 31.976562 39.199219 32h192c22.082031-.027344 39.972656-17.917969 40-40v-256c-.027344-22.082031-17.917969-39.972656-40-40zm-115.3125-48h-60.6875c-4.417969 0-8-3.582031-8-8v-60.6875zm-308.6875 312v-368c0-13.253906 10.746094-24 24-24h200v72c0 13.253906 10.746094 24 24 24h72v32h-88c-22.082031.027344-39.972656 17.917969-40 40v248h-168c-13.253906 0-24-10.746094-24-24zm448 32c0 13.253906-10.746094 24-24 24h-192c-13.253906 0-24-10.746094-24-24v-256c0-13.253906 10.746094-24 24-24h192c13.253906 0 24 10.746094 24 24zm0 0"/><path d="m408 176h-128c-22.082031.027344-39.972656 17.917969-40 40v32c.027344 22.082031 17.917969 39.972656 40 40h128c22.082031-.027344 39.972656-17.917969 40-40v-32c-.027344-22.082031-17.917969-39.972656-40-40zm24 72c0 13.253906-10.746094 24-24 24h-128c-13.253906 0-24-10.746094-24-24v-32c0-13.253906 10.746094-24 24-24h128c13.253906 0 24 10.746094 24 24zm0 0"/>
        <path d="m272 304c-17.671875 0-32 14.328125-32 32s14.328125 32 32 32 32-14.328125 32-32-14.328125-32-32-32zm0 48c-8.835938 0-16-7.164062-16-16s7.164062-16 16-16 16 7.164062 16 16-7.164062 16-16 16zm0 0"/>
        <path d="m344 304c-17.671875 0-32 14.328125-32 32s14.328125 32 32 32 32-14.328125 32-32-14.328125-32-32-32zm0 48c-8.835938 0-16-7.164062-16-16s7.164062-16 16-16 16 7.164062 16 16-7.164062 16-16 16zm0 0"/>
        <path d="m272 384c-17.671875 0-32 14.328125-32 32s14.328125 32 32 32 32-14.328125 32-32-14.328125-32-32-32zm0 48c-8.835938 0-16-7.164062-16-16s7.164062-16 16-16 16 7.164062 16 16-7.164062 16-16 16zm0 0"/>
        <path d="m344 384c-17.671875 0-32 14.328125-32 32s14.328125 32 32 32 32-14.328125 32-32-14.328125-32-32-32zm0 48c-8.835938 0-16-7.164062-16-16s7.164062-16 16-16 16 7.164062 16 16-7.164062 16-16 16zm0 0"/>
        <path d="m416 304c-17.671875 0-32 14.328125-32 32v80c0 17.671875 14.328125 32 32 32s32-14.328125 32-32v-80c0-17.671875-14.328125-32-32-32zm16 112c0 8.835938-7.164062 16-16 16s-16-7.164062-16-16v-80c0-8.835938 7.164062-16 16-16s16 7.164062 16 16zm0 0"/>
        <path d="m82.34375 141.65625c3.125 3.121094 8.1875 3.121094 11.3125 0l72-72c3.03125-3.140625 2.988281-8.128906-.097656-11.214844-3.085938-3.085937-8.074219-3.128906-11.214844-.097656l-72 72c-3.121094 3.125-3.121094 8.1875 0 11.3125zm0 0"/>
        <path d="m128 128c0 13.253906 10.746094 24 24 24s24-10.746094 24-24-10.746094-24-24-24-24 10.746094-24 24zm32 0c0 4.417969-3.582031 8-8 8s-8-3.582031-8-8 3.582031-8 8-8 8 3.582031 8 8zm0 0"/>
        <path d="m96 96c13.253906 0 24-10.746094 24-24s-10.746094-24-24-24-24 10.746094-24 24 10.746094 24 24 24zm0-32c4.417969 0 8 3.582031 8 8s-3.582031 8-8 8-8-3.582031-8-8 3.582031-8 8-8zm0 0"/>
        <path d="m56 216h96c4.417969 0 8-3.582031 8-8s-3.582031-8-8-8h-96c-4.417969 0-8 3.582031-8 8s3.582031 8 8 8zm0 0"/>
        <path d="m168 232h-112c-4.417969 0-8 3.582031-8 8s3.582031 8 8 8h112c4.417969 0 8-3.582031 8-8s-3.582031-8-8-8zm0 0"/>
        <path d="m88 264h-32c-4.417969 0-8 3.582031-8 8s3.582031 8 8 8h32c4.417969 0 8-3.582031 8-8s-3.582031-8-8-8zm0 0"/>
        <path d="m168 264h-48c-4.417969 0-8 3.582031-8 8s3.582031 8 8 8h48c4.417969 0 8-3.582031 8-8s-3.582031-8-8-8zm0 0"/>
    </symbol>
    <symbol id="optimization-04" height="480pt" viewBox="0 0 480 480" width="480pt">
        <path d="m328 240c0-48.601562-39.398438-88-88-88s-88 39.398438-88 88 39.398438 88 88 88c48.578125-.058594 87.941406-39.421875 88-88zm-110.855469 17.648438c-1.417969-8.921876-1.589843-17.992188-.511719-26.960938 7.390626.945312 14.835938 1.421875 22.289063 1.425781 8.199219-.007812 16.394531-.578125 24.519531-1.714843 1.097656 8.964843.941406 18.039062-.457031 26.960937-15.230469-1.878906-30.636719-1.78125-45.839844.289063zm41.976563 15.527343c-4.332032 12.488281-10.800782 24.128907-19.121094 34.398438-8.265625-10.21875-14.691406-21.796875-19-34.214844 12.65625-1.539063 25.449219-1.601563 38.121094-.183594zm-91.121094-33.175781c-.003906-7.304688 1.109375-14.566406 3.296875-21.535156 9.621094 4.148437 19.625 7.34375 29.871094 9.535156-1.441407 10.785156-1.324219 21.71875.34375 32.472656-9.332031 2.121094-18.492188 4.941406-27.398438 8.4375-4.027343-9.105468-6.109375-18.953125-6.113281-28.910156zm51.800781-25.328125c4.261719-14.988281 11.09375-29.121094 20.199219-41.769531 9.101562 12.554687 15.949219 26.597656 20.238281 41.496094-13.414062 1.757812-27 1.847656-40.4375.273437zm58.96875 12.863281c10.171875-2.328125 20.140625-5.484375 29.796875-9.4375 5.320313 16.539063 4.449219 34.453125-2.453125 50.398438-8.910156-3.648438-18.128906-6.496094-27.546875-8.503906 1.617188-10.753907 1.683594-21.683594.203125-32.457032zm23.140625-24.101562c-8.5625 3.460937-17.390625 6.230468-26.398437 8.277344-4.054688-14.683594-10.253907-28.6875-18.398438-41.558594 18.789063 4.636718 34.933594 16.628906 44.796875 33.28125zm-79.0625-33.28125c-8.210937 12.992187-14.4375 27.132812-18.480468 41.960937-9.074219-1.941406-17.949219-4.71875-26.511719-8.304687 9.835937-16.835938 26.066406-28.976563 44.992187-33.65625zm-40.550781 112.726562c7.449219-2.777344 15.082031-5.027344 22.847656-6.742187 3.730469 11.886719 9.25 23.140625 16.367188 33.367187-15.699219-4.199218-29.519531-13.582031-39.214844-26.625zm76.191406 26.625c7.199219-10.335937 12.757813-21.71875 16.480469-33.75 7.832031 1.652344 15.523438 3.910156 23.007812 6.757813-9.707031 13.230469-23.636718 22.75-39.488281 26.992187zm0 0"/>
        <path d="m24 112h32v16c-22.082031.027344-39.972656 17.917969-40 40v8h128v-8c-.027344-22.082031-17.917969-39.972656-40-40v-16h32c13.253906 0 24-10.746094 24-24v-64c0-13.253906-10.746094-24-24-24h-112c-13.253906 0-24 10.746094-24 24v64c0 13.253906 10.746094 24 24 24zm102.632812 48h-93.265624c3.402343-9.582031 12.464843-15.988281 22.632812-16h48c10.167969.011719 19.230469 6.417969 22.632812 16zm-38.632812-32h-16v-16h16zm-72-104c0-4.417969 3.582031-8 8-8h112c4.417969 0 8 3.582031 8 8v64c0 4.417969-3.582031 8-8 8h-112c-4.417969 0-8-3.582031-8-8zm0 0"/>
        <path d="m24 416h32v16c-22.082031.027344-39.972656 17.917969-40 40v8h128v-8c-.027344-22.082031-17.917969-39.972656-40-40v-16h32c13.253906 0 24-10.746094 24-24v-64c0-13.253906-10.746094-24-24-24h-112c-13.253906 0-24 10.746094-24 24v64c0 13.253906 10.746094 24 24 24zm102.632812 48h-93.265624c3.402343-9.582031 12.464843-15.988281 22.632812-16h48c10.167969.011719 19.230469 6.417969 22.632812 16zm-38.632812-32h-16v-16h16zm-72-104c0-4.417969 3.582031-8 8-8h112c4.417969 0 8 3.582031 8 8v64c0 4.417969-3.582031 8-8 8h-112c-4.417969 0-8-3.582031-8-8zm0 0"/>
        <path d="m456 0h-112c-13.253906 0-24 10.746094-24 24v64c0 13.253906 10.746094 24 24 24h32v16c-22.082031.027344-39.972656 17.917969-40 40v8h128v-8c-.027344-22.082031-17.917969-39.972656-40-40v-16h32c13.253906 0 24-10.746094 24-24v-64c0-13.253906-10.746094-24-24-24zm-9.367188 160h-93.265624c3.402343-9.582031 12.464843-15.988281 22.632812-16h48c10.167969.011719 19.230469 6.417969 22.632812 16zm-38.632812-32h-16v-16h16zm56-40c0 4.417969-3.582031 8-8 8h-112c-4.417969 0-8-3.582031-8-8v-64c0-4.417969 3.582031-8 8-8h112c4.417969 0 8 3.582031 8 8zm0 0"/>
        <path d="m456 304h-112c-13.253906 0-24 10.746094-24 24v64c0 13.253906 10.746094 24 24 24h32v16c-22.082031.027344-39.972656 17.917969-40 40v8h128v-8c-.027344-22.082031-17.917969-39.972656-40-40v-16h32c13.253906 0 24-10.746094 24-24v-64c0-13.253906-10.746094-24-24-24zm-9.367188 160h-93.265624c3.402343-9.582031 12.464843-15.988281 22.632812-16h48c10.167969.011719 19.230469 6.417969 22.632812 16zm-38.632812-32h-16v-16h16zm56-40c0 4.417969-3.582031 8-8 8h-112c-4.417969 0-8-3.582031-8-8v-64c0-4.417969 3.582031-8 8-8h112c4.417969 0 8 3.582031 8 8zm0 0"/>
        <path d="m400 192h16v16h-16zm0 0"/>
        <path d="m400 232h16v16h-16zm0 0"/>
        <path d="m400 272h16v16h-16zm0 0"/>
        <path d="m64 192h16v16h-16zm0 0"/>
        <path d="m64 232h16v16h-16zm0 0"/>
        <path d="m64 272h16v16h-16zm0 0"/>
        <path d="m272 48h16v16h-16zm0 0"/>
        <path d="m232 48h16v16h-16zm0 0"/>
        <path d="m192 48h16v16h-16zm0 0"/>
        <path d="m272 416h16v16h-16zm0 0"/>
        <path d="m232 416h16v16h-16zm0 0"/>
        <path d="m192 416h16v16h-16zm0 0"/>
    </symbol>
</svg>
